<svg width="205" height="68" viewBox="0 0 205 68" fill="none" xmlns="http://www.w3.org/2000/svg">
<g clip-path="url(#clip0_13_658)">
<path d="M59.968 51.7053C58.5672 51.2048 58.3018 50.8712 58.3018 50.2971C58.3018 49.7231 58.7048 49.2668 59.6632 49.2668C60.3661 49.2668 60.833 49.4974 61.3442 49.9193L61.8455 49.306C61.2557 48.835 60.6561 48.5602 59.7124 48.5602C58.405 48.5602 57.5203 49.2275 57.5203 50.3462C57.5203 51.3569 58.0315 51.8476 59.5453 52.3873C60.8281 52.8485 61.2164 53.2165 61.2164 53.8642C61.2164 54.6051 60.6364 55.0663 59.7075 55.0663C58.985 55.0663 58.3755 54.7327 57.8447 54.2273L57.3286 54.8063C57.8791 55.3656 58.7294 55.7778 59.6829 55.7778C61.1427 55.7778 62.0028 54.924 62.0028 53.8299C62.0028 52.7357 61.526 52.2696 59.9729 51.7102L59.968 51.7053Z" fill="white"/>
<path d="M65.1777 50.3118C64.4945 50.3118 63.8752 50.4787 63.4132 50.7289L63.6983 51.3373C64.1259 51.0871 64.5781 50.935 65.1285 50.935C65.8953 50.935 66.2688 51.3128 66.2688 52.0978V52.7161C65.9592 52.5443 65.4824 52.4119 64.9565 52.4119C63.9195 52.4119 62.9463 52.9123 62.9463 54.0899C62.9463 55.3558 63.8064 55.7679 64.6223 55.7679C65.3792 55.7679 65.8953 55.4147 66.2688 55.0172V55.66H67.0159V51.9997C67.0159 50.7829 66.3082 50.302 65.1777 50.302V50.3118ZM66.2688 54.3794C65.9494 54.8161 65.4382 55.1644 64.7599 55.1644C64.1161 55.1644 63.6835 54.8259 63.6835 54.0457C63.6835 53.3883 64.1455 53.0154 64.9172 53.0154C65.5562 53.0154 65.9248 53.1331 66.2688 53.3196V54.3843V54.3794Z" fill="white"/>
<path d="M74.5557 52.5934V55.6649H75.3028V52.4707C75.3028 50.9399 74.6343 50.3119 73.5628 50.3119C72.7076 50.3119 72.28 50.7093 71.9704 51.2098C71.7197 50.7093 71.2724 50.3119 70.5303 50.3119C69.911 50.3119 69.4686 50.6112 69.1983 51.0626V50.4247H68.4414V55.6698H69.1983V52.5983C69.1983 51.4355 69.6456 50.9595 70.3681 50.9595C71.0906 50.9595 71.4985 51.3962 71.4985 52.5983V55.6698H72.2505V52.5983C72.2505 51.4355 72.7076 50.9595 73.4203 50.9595C74.1772 50.9595 74.5508 51.3962 74.5508 52.5983L74.5557 52.5934Z" fill="white"/>
<path d="M78.3159 52.613C77.4262 52.2107 77.1608 52.039 77.1608 51.5925C77.1608 51.2098 77.4754 50.9448 78.0308 50.9448C78.5862 50.9448 78.9302 51.092 79.3382 51.4158L79.756 50.8614C79.3578 50.5326 78.7975 50.3069 78.0799 50.3069C77.1215 50.3069 76.4383 50.8467 76.4383 51.6415C76.4383 52.4806 76.8758 52.7995 77.9325 53.2509C78.8614 53.6483 79.1711 53.8887 79.1711 54.3205C79.1711 54.8308 78.8319 55.1301 78.1094 55.1301C77.5884 55.1301 77.0969 54.9191 76.6792 54.5511L76.2368 55.0957C76.7381 55.4981 77.3673 55.7679 78.0898 55.7679C78.9991 55.7679 79.8887 55.3214 79.8887 54.2862C79.8887 53.349 79.3087 53.0595 78.3109 52.6081L78.3159 52.613Z" fill="white"/>
<path d="M84.2725 53.4864C84.2725 54.6345 83.6975 55.1203 82.975 55.1203C82.1296 55.1203 81.7315 54.6149 81.7315 53.4864V50.4198H80.9844V53.614C80.9844 55.1203 81.7167 55.7729 82.8226 55.7729C83.4861 55.7729 83.9727 55.4637 84.2725 55.0222V55.6649H85.0245V50.4198H84.2725V53.4864Z" fill="white"/>
<path d="M90.3326 55.6649V52.4707C90.3326 50.9595 89.6003 50.3119 88.4895 50.3119C87.8309 50.3119 87.3394 50.621 87.0445 51.0626V50.4247H86.2876V55.6698H87.0445V52.5983C87.0445 51.4502 87.6097 50.9595 88.3372 50.9595C89.1776 50.9595 89.5807 51.4698 89.5807 52.5983V55.6698H90.3326V55.6649Z" fill="white"/>
<path d="M92.6971 57.0191L92.9379 57.5883C94.8892 57.5294 95.597 56.7689 95.597 55.189V50.4149H94.845V51.0037C94.4763 50.5817 94.0242 50.3069 93.3655 50.3069C92.2646 50.3069 91.3799 51.2637 91.3799 53.1233C91.3799 54.9829 92.2154 55.7679 93.2623 55.7679C93.975 55.7679 94.4763 55.4147 94.845 55.0172V55.2871C94.845 56.5088 94.4468 56.9701 92.6922 57.0142L92.6971 57.0191ZM93.454 55.1203C92.6234 55.1203 92.122 54.4334 92.122 53.1135C92.122 51.7053 92.5497 50.9546 93.4245 50.9546C94.0487 50.9546 94.555 51.303 94.845 51.7397V54.3647C94.4763 54.8259 94.0143 55.1203 93.454 55.1203Z" fill="white"/>
<path d="M103.884 52.1175C103.884 49.7182 102.527 48.6682 100.689 48.6682H98.8359V55.6649H100.551C102.424 55.6649 103.884 54.6542 103.884 52.1175ZM99.6174 49.3747H100.63C102.242 49.3747 103.102 50.356 103.102 52.142C103.102 54.1537 102.158 54.9535 100.65 54.9535H99.6174V49.3747Z" fill="white"/>
<path d="M105.884 51.0675V50.4198H105.132V55.6649H105.884V52.5836C105.884 51.5826 106.297 50.9988 107.029 50.9988C107.378 50.9988 107.604 51.0773 107.815 51.1999L108.002 50.4443C107.825 50.3658 107.575 50.3168 107.181 50.3168C106.616 50.3168 106.12 50.6553 105.884 51.0724V51.0675Z" fill="white"/>
<path d="M112.495 55.1644L112.141 54.6247C111.659 54.9436 111.3 55.1252 110.686 55.1252C109.831 55.1252 109.295 54.4137 109.226 53.2999H112.726C112.75 53.1773 112.76 53.0693 112.76 52.8927C112.76 51.3962 112.013 50.3168 110.642 50.3168C109.393 50.3168 108.474 51.352 108.474 53.0154C108.474 55.081 109.644 55.7778 110.607 55.7778C111.399 55.7778 111.861 55.5668 112.495 55.1693V55.1644ZM110.642 50.9595C111.561 50.9595 112.003 51.671 112.062 52.6866H109.226C109.315 51.514 109.86 50.9595 110.642 50.9595Z" fill="white"/>
<path d="M115.267 55.7729C116.019 55.7729 116.535 55.4196 116.904 55.0221V55.6649H117.656V52.0046C117.656 50.7878 116.948 50.3069 115.817 50.3069C115.134 50.3069 114.515 50.4738 114.053 50.724L114.333 51.3324C114.766 51.0822 115.213 50.9301 115.763 50.9301C116.535 50.9301 116.904 51.3079 116.904 52.0929V52.7112C116.594 52.5394 116.122 52.407 115.596 52.407C114.554 52.407 113.576 52.9074 113.576 54.085C113.576 55.3509 114.441 55.763 115.262 55.763L115.267 55.7729ZM115.557 53.0105C116.196 53.0105 116.569 53.1282 116.909 53.3147V54.3794C116.589 54.8161 116.078 55.1644 115.4 55.1644C114.761 55.1644 114.323 54.8259 114.323 54.0457C114.323 53.3883 114.79 53.0154 115.557 53.0154V53.0105Z" fill="white"/>
<path d="M125.195 52.5934V55.6649H125.947V52.4707C125.947 50.9399 125.279 50.3119 124.207 50.3119C123.357 50.3119 122.924 50.7093 122.62 51.2098C122.369 50.7093 121.922 50.3119 121.18 50.3119C120.555 50.3119 120.118 50.6112 119.848 51.0626V50.4247H119.101V55.6698H119.848V52.5983C119.848 51.4355 120.3 50.9595 121.022 50.9595C121.745 50.9595 122.158 51.3962 122.158 52.5983V55.6698H122.905V52.5983C122.905 51.4355 123.362 50.9595 124.079 50.9595C124.836 50.9595 125.21 51.3962 125.21 52.5983L125.195 52.5934Z" fill="white"/>
<path d="M59.968 62.1121C58.5623 61.6116 58.3067 61.2829 58.3067 60.7039C58.3067 60.125 58.7097 59.6785 59.6682 59.6785C60.371 59.6785 60.8428 59.9042 61.3491 60.3261L61.8504 59.7177C61.2606 59.2516 60.6561 58.9719 59.7173 58.9719C58.405 58.9719 57.5252 59.6294 57.5252 60.7579C57.5252 61.7687 58.0364 62.2544 59.5502 62.7941C60.833 63.2603 61.2213 63.6233 61.2213 64.2759C61.2213 65.0119 60.6413 65.4731 59.7075 65.4731C58.985 65.4731 58.3755 65.1395 57.8447 64.6341L57.3286 65.2131C57.8791 65.7724 58.7294 66.1797 59.6829 66.1797C61.1427 66.1797 61.9979 65.3308 61.9979 64.2318C61.9979 63.1327 61.5211 62.6715 59.9729 62.1121H59.968Z" fill="white"/>
<path d="M65.1879 61.3663C65.7187 61.3663 66.0676 61.5528 66.4461 61.8962L66.8983 61.3369C66.4854 60.9738 65.9399 60.7138 65.237 60.7138C64.136 60.7138 62.9712 61.5332 62.9712 63.4712C62.9712 65.3014 64.0279 66.1748 65.1829 66.1748C65.9202 66.1748 66.4314 65.8951 66.8737 65.4437L66.4215 64.9678C66.0627 65.3161 65.7236 65.5222 65.2124 65.5222C64.2835 65.5222 63.7281 64.693 63.7281 63.4026C63.7281 62.1121 64.3621 61.3565 65.1829 61.3565L65.1879 61.3663Z" fill="white"/>
<path d="M70.1077 60.7187C69.4491 60.7187 68.9527 61.0278 68.6528 61.4694V59.0063H67.9058V66.0815H68.6528V63.01C68.6528 61.8619 69.2279 61.3712 69.9553 61.3712C70.8007 61.3712 71.1988 61.8766 71.1988 63.01V66.0815H71.9508V62.8775C71.9508 61.3712 71.2185 60.7187 70.1077 60.7187Z" fill="white"/>
<path d="M75.3026 60.7187C74.0247 60.7187 73.0073 61.6754 73.0073 63.4565C73.0073 65.2376 73.9854 66.1846 75.2633 66.1846C76.5412 66.1846 77.5685 65.1983 77.5685 63.4173C77.5685 61.6362 76.5805 60.7187 75.3026 60.7187ZM75.2879 65.532C74.3737 65.532 73.7593 64.8156 73.7593 63.4369C73.7593 62.0581 74.3737 61.3712 75.2879 61.3712C76.2021 61.3712 76.8165 62.0581 76.8165 63.4369C76.8165 64.8156 76.1972 65.532 75.2879 65.532Z" fill="white"/>
<path d="M79.4512 59.0014H78.6992V66.0766H79.4512V59.0014Z" fill="white"/>
<path d="M82.8867 60.7187C82.2035 60.7187 81.5842 60.8904 81.1271 61.1406L81.4072 61.7539C81.8398 61.5037 82.2919 61.3516 82.8424 61.3516C83.6092 61.3516 83.9827 61.7343 83.9827 62.5096V63.1327C83.6731 62.961 83.2012 62.8285 82.6753 62.8285C81.6333 62.8285 80.6602 63.3289 80.6602 64.5114C80.6602 65.7773 81.5203 66.1846 82.3411 66.1846C83.0931 66.1846 83.6092 65.8362 83.9827 65.4388V66.0815H84.7347V62.4261C84.7347 61.1995 84.022 60.7236 82.8916 60.7236L82.8867 60.7187ZM83.9778 64.7862C83.6632 65.218 83.1422 65.5712 82.4689 65.5712C81.8299 65.5712 81.3974 65.2327 81.3974 64.4526C81.3974 63.7902 81.8594 63.4271 82.6311 63.4271C83.27 63.4271 83.6386 63.535 83.9778 63.7264V64.7862Z" fill="white"/>
<path d="M86.9122 61.4792V60.8217H86.1602V66.0717H86.9122V62.9904C86.9122 61.9944 87.3152 61.4007 88.0524 61.4007C88.4063 61.4007 88.6324 61.4792 88.8437 61.6018L89.0354 60.8413C88.8536 60.7628 88.6078 60.7088 88.2146 60.7088C87.6543 60.7088 87.1481 61.0474 86.9171 61.4743L86.9122 61.4792Z" fill="white"/>
<path d="M91.9155 63.0247C91.0259 62.6224 90.7556 62.4409 90.7556 62.0042C90.7556 61.6264 91.075 61.3565 91.6255 61.3565C92.176 61.3565 92.5299 61.5086 92.9378 61.8275L93.3556 61.278C92.9526 60.9493 92.3972 60.7187 91.6747 60.7187C90.7212 60.7187 90.0281 61.2584 90.0281 62.0582C90.0281 62.8579 90.4705 63.2161 91.5223 63.6626C92.4512 64.06 92.7609 64.3053 92.7609 64.7322C92.7609 65.2474 92.4218 65.5418 91.7042 65.5418C91.1783 65.5418 90.6917 65.3308 90.269 64.9628L89.8315 65.5124C90.3329 65.9147 90.962 66.1797 91.6845 66.1797C92.5938 66.1797 93.4834 65.7283 93.4834 64.7028C93.4834 63.7607 92.9034 63.4761 91.9106 63.0247H91.9155Z" fill="white"/>
<path d="M96.9139 60.7187C96.2454 60.7187 95.7588 61.0278 95.459 61.4694V59.0063H94.707V66.0815H95.459V63.01C95.459 61.8619 96.0292 61.3712 96.7615 61.3712C97.602 61.3712 98.0001 61.8766 98.0001 63.01V66.0815H98.7521V62.8775C98.7521 61.3712 98.0247 60.7187 96.9139 60.7187Z" fill="white"/>
<path d="M100.984 60.8217H100.237V66.0717H100.984V60.8217Z" fill="white"/>
<path d="M100.625 58.8198C100.32 58.8198 100.079 59.0602 100.079 59.3645C100.079 59.6687 100.32 59.8944 100.625 59.8944C100.905 59.8944 101.146 59.649 101.146 59.3645C101.146 59.0602 100.905 58.8198 100.625 58.8198Z" fill="white"/>
<path d="M104.832 60.7187C104.124 60.7187 103.623 61.0719 103.25 61.4694V60.8266H102.498V68.0049H103.25V65.4878C103.618 65.9049 104.07 66.1846 104.734 66.1846C105.83 66.1846 106.715 65.2229 106.715 63.3682C106.715 61.5135 105.879 60.7187 104.832 60.7187ZM104.67 65.532C104.051 65.532 103.54 65.1836 103.25 64.742V62.1219C103.618 61.6656 104.08 61.3663 104.641 61.3663C105.476 61.3663 105.977 62.0532 105.977 63.3731C105.977 64.7813 105.545 65.5271 104.675 65.5271L104.67 65.532Z" fill="white"/>
<path d="M110.691 59.7864H114.023V59.0799H109.909V66.0766H110.691V62.8138H112.612V62.1072H110.691V59.7864Z" fill="white"/>
<path d="M116.304 60.7187C115.026 60.7187 114.003 61.6754 114.003 63.4565C114.003 65.2376 114.986 66.1846 116.264 66.1846C117.542 66.1846 118.569 65.1983 118.569 63.4173C118.569 61.6362 117.591 60.7187 116.304 60.7187ZM116.284 65.532C115.37 65.532 114.765 64.8156 114.765 63.4369C114.765 62.0581 115.375 61.3712 116.284 61.3712C117.193 61.3712 117.817 62.0581 117.817 63.4369C117.817 64.8156 117.198 65.532 116.284 65.532Z" fill="white"/>
<path d="M122.713 63.8932C122.713 65.0413 122.148 65.532 121.415 65.532C120.575 65.532 120.172 65.0266 120.172 63.8932V60.8217H119.425V64.0208C119.425 65.5271 120.157 66.1797 121.268 66.1797C121.922 66.1797 122.413 65.8755 122.713 65.4339V66.0766H123.47V60.8266H122.713V63.8981V63.8932Z" fill="white"/>
<path d="M126.93 60.7187C126.271 60.7187 125.78 61.0278 125.48 61.4694V60.8266H124.728V66.0766H125.48V63.0051C125.48 61.857 126.05 61.3663 126.783 61.3663C127.623 61.3663 128.021 61.8717 128.021 63.0051V66.0766H128.773V62.8726C128.773 61.3663 128.041 60.7138 126.93 60.7138V60.7187Z" fill="white"/>
<path d="M133.29 61.4203C132.917 60.9983 132.469 60.7138 131.806 60.7138C130.705 60.7138 129.825 61.6705 129.825 63.535C129.825 65.3995 130.656 66.1797 131.708 66.1797C132.42 66.1797 132.917 65.8313 133.285 65.4339V66.0766H134.037V59.0014H133.285V61.4203H133.29ZM133.29 64.7715C132.917 65.2278 132.46 65.5271 131.899 65.5271C131.069 65.5271 130.567 64.8402 130.567 63.5203C130.567 62.1072 130.995 61.3614 131.87 61.3614C132.489 61.3614 132.995 61.7098 133.29 62.1514V64.7666V64.7715Z" fill="white"/>
<path d="M137.222 60.7187C136.544 60.7187 135.925 60.8904 135.463 61.1406L135.738 61.7539C136.17 61.5037 136.623 61.3516 137.173 61.3516C137.94 61.3516 138.308 61.7343 138.308 62.5096V63.1327C137.999 62.961 137.527 62.8285 136.996 62.8285C135.959 62.8285 134.986 63.3289 134.986 64.5114C134.986 65.7773 135.851 66.1846 136.672 66.1846C137.424 66.1846 137.94 65.8362 138.308 65.4388V66.0815H139.06V62.4261C139.06 61.1995 138.353 60.7236 137.217 60.7236L137.222 60.7187ZM138.308 64.7862C137.989 65.218 137.483 65.5712 136.795 65.5712C136.161 65.5712 135.733 65.2327 135.733 64.4526C135.733 63.7902 136.19 63.4271 136.962 63.4271C137.601 63.4271 137.974 63.535 138.308 63.7264V64.7862Z" fill="white"/>
<path d="M141.459 59.0014H140.702V60.8217H140.053V61.4547H140.702V64.9923C140.702 65.8607 141.056 66.1748 141.71 66.1748C142.103 66.1748 142.383 66.1159 142.673 65.9981L142.727 65.3505C142.486 65.4486 142.29 65.4977 141.985 65.4977C141.587 65.4977 141.459 65.3357 141.459 64.8696V61.4547H142.761V60.8217H141.459V59.0014Z" fill="white"/>
<path d="M144.467 58.8198C144.157 58.8198 143.911 59.0602 143.911 59.3645C143.911 59.6687 144.157 59.8944 144.467 59.8944C144.747 59.8944 144.983 59.649 144.983 59.3645C144.983 59.0602 144.742 58.8198 144.467 58.8198Z" fill="white"/>
<path d="M144.826 60.8217H144.074V66.0717H144.826V60.8217Z" fill="white"/>
<path d="M148.256 60.7187C146.978 60.7187 145.956 61.6754 145.956 63.4565C145.956 65.2376 146.934 66.1846 148.217 66.1846C149.5 66.1846 150.517 65.1983 150.517 63.4173C150.517 61.6362 149.534 60.7187 148.256 60.7187ZM148.237 65.532C147.327 65.532 146.713 64.8156 146.713 63.4369C146.713 62.0581 147.327 61.3712 148.237 61.3712C149.146 61.3712 149.77 62.0581 149.77 63.4369C149.77 64.8156 149.151 65.532 148.237 65.532Z" fill="white"/>
<path d="M153.805 60.7187C153.147 60.7187 152.655 61.0278 152.351 61.4694V60.8266H151.599V66.0766H152.351V63.0051C152.351 61.857 152.921 61.3663 153.653 61.3663C154.494 61.3663 154.897 61.8717 154.897 63.0051V66.0766H155.644V62.8726C155.644 61.3663 154.911 60.7138 153.805 60.7138V60.7187Z" fill="white"/>
<path d="M86.2436 34.8954C83.2258 34.9004 80.7388 37.2555 80.7388 40.2092C80.7388 43.163 83.2258 45.4936 86.2436 45.5034C89.2909 45.4936 91.7533 43.1336 91.7533 40.2092C91.7533 37.2849 89.2909 34.9004 86.2436 34.8954ZM86.1699 43.0796C84.5921 43.0796 83.4027 41.7941 83.4027 40.2092C83.4027 38.6244 84.6757 37.3144 86.2485 37.3144C87.8213 37.3144 89.05 38.5999 89.05 40.2092C89.05 41.8186 87.7623 43.0796 86.1748 43.0796H86.1699Z" fill="white"/>
<path d="M60.9854 31.2401C61.8259 32.0693 62.7892 32.7954 63.7378 33.2616L63.8361 33.3155L65.463 31.3971L65.3057 31.3088C63.7624 30.4746 62.5533 29.4197 61.762 28.0901C60.9756 26.78 60.5725 25.259 60.5725 23.4386V21.7312H57.6628V23.2571C57.6628 25.2295 57.2156 26.78 56.3751 28.1391C55.4363 29.6454 54.0454 30.8574 52.2662 31.981L52.1089 32.0791L53.8734 33.9043L53.9717 33.8504C55.0235 33.2812 56.1392 32.4029 57.1075 31.4216C57.9479 30.563 58.6753 29.6454 59.1177 28.777C59.5453 29.6307 60.199 30.4992 60.9854 31.245V31.2401Z" fill="white"/>
<path d="M57.835 44.2474H70.0143V35.9406H57.835V44.2474ZM60.5726 38.2859H67.2767V41.902H60.5726V38.2859Z" fill="white"/>
<path d="M98.4429 44.2474H112.215V35.9406H98.4429V44.2474ZM101.151 38.2859H109.511V41.902H101.151V38.2859Z" fill="white"/>
<path d="M70.0636 21.2405H67.3555V34.9887H70.0636V28.9045H73.2338V26.4611H70.0636V21.2405Z" fill="white"/>
<path d="M126.212 31.9417C127.102 32.712 128.119 33.3597 129.078 33.7768L129.176 33.8209L130.641 31.8436L130.483 31.7651C129.088 31.0536 127.844 30.1704 126.95 29.091C126.04 27.9919 125.5 26.6672 125.5 25.0725V24.6064H129.53V22.2414H118.589V24.6064H122.614V25.1756C122.614 26.6279 122.133 27.9821 121.332 29.1548C120.393 30.563 119.022 31.6964 117.69 32.4324L117.513 32.5256L119.312 34.3852L119.41 34.3361C120.378 33.7866 121.45 32.9574 122.364 32.0251C123.096 31.2597 123.755 30.4501 124.158 29.6405C124.644 30.4256 125.391 31.2106 126.217 31.9417H126.212Z" fill="white"/>
<path d="M145.799 38.3399H155.644V44.2424H158.376V35.9945H145.799V38.3399Z" fill="white"/>
<path d="M152.591 28.8849C152.591 27.5847 152.006 26.3875 151.141 25.4749H153.844V23.1344H148.684V20.5585H145.749V23.1344H140.466V25.4749H143.228C142.383 26.3875 141.798 27.5749 141.798 28.8849C141.798 31.7847 144.191 34.1398 147.185 34.1497C150.178 34.1398 152.586 31.7847 152.591 28.8849ZM144.408 28.777C144.408 27.1725 145.764 25.8134 147.185 25.8134C148.605 25.8134 149.957 27.1774 149.962 28.777C149.962 30.3569 148.605 31.7209 147.185 31.7258C145.759 31.7209 144.413 30.3569 144.408 28.777Z" fill="white"/>
<path d="M158.376 21.2405H155.673V35.0377H158.376V29.773H161.556V27.3295H158.376V21.2405Z" fill="white"/>
<path d="M135.438 21.2405H132.735V35.0377H135.438V28.9045H138.613V26.4611H135.438V21.2405Z" fill="white"/>
<path d="M89.5513 25.3326H85.2949V27.7515H89.5513V35.4744H92.2595V21.2405H89.5513V25.3326Z" fill="white"/>
<path d="M82.6751 31.5982C83.5205 32.4225 84.5084 33.1487 85.4521 33.6394L85.5553 33.6983L87.1822 31.7798L87.0249 31.6915C85.4816 30.8819 84.2971 29.8319 83.5009 28.5218C82.6948 27.2216 82.2918 25.6417 82.2918 23.8213V21.7312H79.3772V23.6447C79.3772 25.6171 78.9348 27.1627 78.114 28.4973C77.1802 30.0281 75.7597 31.2499 73.9805 32.3637L73.8281 32.4618L75.6024 34.2919L75.6909 34.2331C76.7378 33.659 77.8289 32.8298 78.7972 31.8828C79.6721 31.0144 80.3995 30.0674 80.8418 29.1597C81.2596 29.9889 81.8986 30.8328 82.6751 31.6032V31.5982Z" fill="white"/>
<path d="M129.633 34.8954C126.615 34.9004 124.128 37.2555 124.124 40.2092C124.128 43.1336 126.611 45.4936 129.633 45.5034C132.676 45.4936 135.143 43.1336 135.143 40.2092C135.143 37.2849 132.676 34.9004 129.633 34.8954ZM129.555 43.0796C127.982 43.0796 126.783 41.7941 126.783 40.2092C126.783 38.6244 128.051 37.3144 129.633 37.3144C131.216 37.3144 132.43 38.5999 132.435 40.2092C132.435 41.7892 131.142 43.0796 129.555 43.0796Z" fill="white"/>
<path d="M101.741 29.1253H104.449V22.104H97.1401V24.4396H101.741V29.1253Z" fill="white"/>
<path d="M109.87 29.1253H112.583V22.104H105.274V24.4396H109.87V29.1253Z" fill="white"/>
<path d="M178.901 27.4571H176.626V21.6232H174.065V43.6537H176.626V30.1066H178.901V44.2424H181.555V21.2405H178.901V27.4571Z" fill="white"/>
<path d="M170.31 30.5041C169.701 29.1744 169.45 27.6877 169.45 25.8625V24.994H172.522V22.5162H163.596V24.994H166.766V25.9115C166.766 27.6387 166.54 29.0517 165.995 30.3618C165.361 31.8681 164.294 33.2223 162.594 34.6747L162.476 34.7826L164.157 36.4459L164.26 36.3674C165.105 35.7443 165.99 34.8415 166.727 33.9092C167.351 33.1242 167.877 32.3097 168.206 31.5933C168.546 32.2901 169.076 33.0898 169.696 33.8356C170.413 34.709 171.224 35.5382 172.001 36.0338L172.104 36.1025L173.52 34.4146L173.407 34.3116C171.883 32.9868 170.939 31.8043 170.32 30.4992L170.31 30.5041Z" fill="white"/>
<path d="M94.8745 32.3931H103.864V35.0132H106.798V32.3931H115.93V30.0429H94.8745V32.3931Z" fill="white"/>
<path d="M196.974 31.6424H187.822V24.6898H194.792V22.2414H185.08V34.0172H196.974V31.6424Z" fill="white"/>
<path d="M191.798 36.912H189.061V44.2424H201.864V41.8284H191.798V36.912Z" fill="white"/>
<path d="M201.8 27.6092V21.2356H199.097V38.2074H201.8V30.0527H205V27.6092H201.8Z" fill="white"/>
<path d="M57.4122 14.1407L50.3984 11.2409L57.4122 8.34115L56.1637 5.34324L49.155 8.24302L52.0597 1.24136L49.0517 0L46.1519 7.00166L43.2471 0L40.2391 1.24136L43.1439 8.24302L36.1351 5.34324L34.8916 8.34115L41.9004 11.2409L34.8916 14.1407L36.1351 17.1386L43.1439 14.2388L40.2391 21.2405L43.2471 22.4819L46.1519 15.4851L49.0517 22.4819L52.0597 21.2356L49.155 14.2388L56.1637 17.1386L57.4122 14.1407Z" fill="white"/>
<path d="M12.0319 33.6737H16.6963V21.2405H0.74707V25.4307H12.0319V33.6737Z" fill="white"/>
<path d="M30.2272 33.6737H34.8916V21.2405H18.9424V25.4307H30.2272V33.6737Z" fill="white"/>
<path d="M0 40.1062H30.2273V46.5093H34.8916V35.916H0V40.1062Z" fill="white"/>
<path d="M11.2847 66.0766H34.8914V48.6633H11.2847V66.0766ZM15.949 52.8535H30.232V61.8864H15.949V52.8535Z" fill="white"/>
</g>
<defs>
<clipPath id="clip0_13_658">
<rect width="205" height="68" fill="white"/>
</clipPath>
</defs>
</svg>
