<svg xmlns="http://www.w3.org/2000/svg" width="49.063" height="44.157" viewBox="0 0 49.063 44.157">
  <path id="photo_camera_24dp_FILL0_wght400_GRAD0_opsz24" d="M104.532-804.429a10.646,10.646,0,0,0,7.819-3.22,10.646,10.646,0,0,0,3.22-7.819,10.646,10.646,0,0,0-3.22-7.819,10.646,10.646,0,0,0-7.819-3.22,10.646,10.646,0,0,0-7.82,3.22,10.646,10.646,0,0,0-3.22,7.819,10.646,10.646,0,0,0,3.22,7.819A10.646,10.646,0,0,0,104.532-804.429Zm0-4.906a5.922,5.922,0,0,1-4.354-1.779,5.922,5.922,0,0,1-1.779-4.354,5.922,5.922,0,0,1,1.779-4.354,5.922,5.922,0,0,1,4.354-1.779,5.922,5.922,0,0,1,4.354,1.779,5.922,5.922,0,0,1,1.779,4.354,5.922,5.922,0,0,1-1.779,4.354A5.922,5.922,0,0,1,104.532-809.335ZM84.906-795.843a4.724,4.724,0,0,1-3.465-1.441A4.724,4.724,0,0,1,80-800.749v-29.438a4.724,4.724,0,0,1,1.441-3.465,4.724,4.724,0,0,1,3.465-1.441h7.727L97.172-840h14.719l4.538,4.906h7.728a4.724,4.724,0,0,1,3.465,1.441,4.724,4.724,0,0,1,1.441,3.465v29.438a4.724,4.724,0,0,1-1.441,3.465,4.724,4.724,0,0,1-3.465,1.441Zm0-4.906h39.251v-29.438h-9.935l-4.477-4.906H99.319l-4.477,4.906H84.906ZM104.532-815.468Z" transform="translate(-80 840)" fill="#fff"/>
</svg>
