<svg xmlns="http://www.w3.org/2000/svg" width="33" height="30" viewBox="0 0 33 30">
  <path id="community_ico4" d="M47.5-730a3.822,3.822,0,0,1-3.187-1.875A7.74,7.74,0,0,1,43-736.429H40v-19.286a5.144,5.144,0,0,1,.881-3.027A2.55,2.55,0,0,1,43-760H64l9,12.857v10.714H70a7.74,7.74,0,0,1-1.312,4.554A3.822,3.822,0,0,1,65.5-730a3.822,3.822,0,0,1-3.187-1.875A7.74,7.74,0,0,1,61-736.429H52a7.74,7.74,0,0,1-1.312,4.554A3.822,3.822,0,0,1,47.5-730ZM61-749.286h6l-4.5-6.429H61Zm-9,0h6v-6.429H52Zm-9,0h6v-6.429H43Zm4.5,15.536a1.591,1.591,0,0,0,1.331-.777,3.233,3.233,0,0,0,.544-1.9,3.233,3.233,0,0,0-.544-1.9,1.591,1.591,0,0,0-1.331-.777,1.591,1.591,0,0,0-1.331.777,3.233,3.233,0,0,0-.544,1.9,3.233,3.233,0,0,0,.544,1.9A1.591,1.591,0,0,0,47.5-733.75Zm18,0a1.591,1.591,0,0,0,1.331-.777,3.233,3.233,0,0,0,.544-1.9,3.233,3.233,0,0,0-.544-1.9,1.591,1.591,0,0,0-1.331-.777,1.591,1.591,0,0,0-1.331.777,3.233,3.233,0,0,0-.544,1.9,3.233,3.233,0,0,0,.544,1.9A1.591,1.591,0,0,0,65.5-733.75ZM43-740.714h1.2a5.826,5.826,0,0,1,1.462-1.554,3.088,3.088,0,0,1,1.838-.589,3.088,3.088,0,0,1,1.838.589,5.826,5.826,0,0,1,1.462,1.554H62.2a5.826,5.826,0,0,1,1.462-1.554,3.088,3.088,0,0,1,1.838-.589,3.088,3.088,0,0,1,1.838.589,5.826,5.826,0,0,1,1.463,1.554H70V-745H43ZM70-745h0Z" transform="translate(-40 760)" fill="#fff"/>
</svg>
