<svg xmlns="http://www.w3.org/2000/svg" width="33" height="30" viewBox="0 0 33 30">
  <path id="community_ico2" d="M80-730v-12.857a7.254,7.254,0,0,1,.454-2.625,7.6,7.6,0,0,1,1.2-2.089v-6a7.241,7.241,0,0,1,1.444-4.554A4.3,4.3,0,0,1,86.6-760h6.6a3.612,3.612,0,0,1,1.774.455,5.672,5.672,0,0,1,1.526,1.259,5.672,5.672,0,0,1,1.526-1.259A3.612,3.612,0,0,1,99.8-760h6.6a4.3,4.3,0,0,1,3.506,1.875,7.241,7.241,0,0,1,1.444,4.554v6a7.6,7.6,0,0,1,1.2,2.089,7.254,7.254,0,0,1,.454,2.625V-730h-3.3v-4.286H83.3V-730Zm18.15-19.286h9.9v-4.286a2.428,2.428,0,0,0-.474-1.527,1.433,1.433,0,0,0-1.176-.616H99.8a1.433,1.433,0,0,0-1.176.616,2.428,2.428,0,0,0-.474,1.527Zm-13.2,0h9.9v-4.286a2.428,2.428,0,0,0-.474-1.527,1.433,1.433,0,0,0-1.176-.616H86.6a1.433,1.433,0,0,0-1.176.616,2.428,2.428,0,0,0-.474,1.527ZM83.3-738.571h26.4v-4.286a2.428,2.428,0,0,0-.474-1.527A1.433,1.433,0,0,0,108.05-745H84.95a1.433,1.433,0,0,0-1.176.616,2.428,2.428,0,0,0-.474,1.527Zm26.4,0h0Z" transform="translate(-80 760)" fill="#fff"/>
</svg>
