<svg xmlns="http://www.w3.org/2000/svg" width="33" height="30" viewBox="0 0 33 30">
  <path id="community_ico1" d="M41.5-850a23.277,23.277,0,0,0,1.444-5.719q.356-2.944.431-5.906a5.3,5.3,0,0,1-2.419-1.875,4.964,4.964,0,0,1-.956-3v-3a38,38,0,0,0,8.794-4.35A47.787,47.787,0,0,0,56.5-880a47.787,47.787,0,0,0,7.706,6.15A38,38,0,0,0,73-869.5v3a4.964,4.964,0,0,1-.956,3,5.3,5.3,0,0,1-2.419,1.875q.075,2.962.431,5.906A23.277,23.277,0,0,0,71.5-850Zm5.85-19.5h18.3a49.9,49.9,0,0,1-5.269-3.394q-2.344-1.744-3.881-3.056-1.537,1.313-3.881,3.056A49.9,49.9,0,0,1,47.35-869.5Zm12.9,5.25a2.17,2.17,0,0,0,1.594-.656A2.17,2.17,0,0,0,62.5-866.5H58a2.17,2.17,0,0,0,.656,1.594A2.17,2.17,0,0,0,60.25-864.25Zm-7.5,0a2.17,2.17,0,0,0,1.594-.656A2.17,2.17,0,0,0,55-866.5H50.5a2.17,2.17,0,0,0,.656,1.594A2.17,2.17,0,0,0,52.75-864.25Zm-7.5,0a2.17,2.17,0,0,0,1.594-.656A2.17,2.17,0,0,0,47.5-866.5H43a2.17,2.17,0,0,0,.656,1.594A2.17,2.17,0,0,0,45.25-864.25ZM45.475-853h4.012q.338-2.25.525-4.463t.3-4.462q-.338-.187-.675-.394a3.439,3.439,0,0,1-.637-.506,5.293,5.293,0,0,1-1.219.919,5.968,5.968,0,0,1-1.406.544q-.075,2.137-.263,4.219A33.539,33.539,0,0,1,45.475-853Zm7.05,0h7.95q-.3-2.062-.469-4.125t-.281-4.163a4.871,4.871,0,0,1-1.781-.469,5.347,5.347,0,0,1-1.444-1.031,5.164,5.164,0,0,1-1.481,1.031,5.1,5.1,0,0,1-1.744.469q-.113,2.1-.281,4.163T52.525-853Zm10.987,0h4.012a33.542,33.542,0,0,1-.637-4.144q-.187-2.081-.262-4.219a6.331,6.331,0,0,1-1.425-.544,4.511,4.511,0,0,1-1.2-.919,3.439,3.439,0,0,1-.638.506q-.337.206-.675.394.112,2.25.319,4.462T63.513-853Zm4.237-11.25a2.17,2.17,0,0,0,1.594-.656A2.17,2.17,0,0,0,70-866.5H65.5a2.17,2.17,0,0,0,.656,1.594A2.17,2.17,0,0,0,67.75-864.25Z" transform="translate(-40 880)" fill="#fff"/>
</svg>
