<svg xmlns="http://www.w3.org/2000/svg" width="33" height="30" viewBox="0 0 33 30">
  <path id="community_ico3" d="M93.2-853h6.6v-1.65l2.063-.75a13.258,13.258,0,0,0,4.558-2.719,10.4,10.4,0,0,0,2.7-3.881H83.877a10.5,10.5,0,0,0,2.681,3.881,12.974,12.974,0,0,0,4.579,2.719l2.063.75Zm-3.3,3v-2.625a16.133,16.133,0,0,1-7.157-4.875A11.412,11.412,0,0,1,80-865h3.3v-12l29.7-3v2.25L94.025-875.8v2.55H113V-871H94.025v6H113a11.412,11.412,0,0,1-2.743,7.5,16.133,16.133,0,0,1-7.157,4.875V-850Zm0-23.25h1.65v-2.325l-1.65.188Zm-4.125,0h1.65v-1.875l-1.65.15ZM89.9-865h1.65v-6H89.9Zm-4.125,0h1.65v-6h-1.65ZM96.5-862Z" transform="translate(-80 880)" fill="#fff"/>
</svg>
