<svg xmlns="http://www.w3.org/2000/svg" xmlns:xlink="http://www.w3.org/1999/xlink" width="318" height="49.981" viewBox="0 0 318 49.981">
  <defs>
    <clipPath id="clip-path">
      <rect id="사각형_17" data-name="사각형 17" width="190" height="49.981" fill="none"/>
    </clipPath>
  </defs>
  <g id="logo" transform="translate(-331 -26.403)">
    <g id="그룹_2" data-name="그룹 2" transform="translate(331 26.403)">
      <g id="그룹_1" data-name="그룹 1" transform="translate(0 0)" clip-path="url(#clip-path)">
        <path id="패스_1" data-name="패스 1" d="M70.956,24.99c0,13.8-15.885,24.991-35.481,24.991S0,38.792,0,24.99,15.885,0,35.476,0,70.956,11.19,70.956,24.99" transform="translate(0 0)" fill="#0d3896"/>
        <path id="패스_2" data-name="패스 2" d="M39.986,46.858c-15.174-.683-15.6-1.372-12.814-1.432,0,0,57.018-2.449,14.163-5.634,0,0-6.881-.549,11.513-1.118,0,0,4.733-.831-19.813-2.491,0,0,4.9-2.235,21.2-1.595L48.906,23.653s-.872-4.536-1.249-6.054S46.3.453,46.3.453c-1.608.2-3.54.346-3.54.346C36.048.43,26.2,3.773,26.2,3.773l-2.209.449-.158,2.857a21.691,21.691,0,0,1,.158,5.865c.138,2.531-3.281,8.22-3.281,8.22l2.116,6.071-.1,3.6,2.212,5.414s13.8,1.428,17.691,1.239c0,0,8.8.425-3.217.986,0,0-33.766-.13-24.878,1.277,0,0,15.883,1.364,24.2,1.94,0,0,9.168,1.063-14.386,2.454,0,0-11.038.848-.434,2.912,0,0,17.434,2.723,32.113.018,0,0,4.817-1.377-1.736-.752,0,0-12.751.607-14.308.537" transform="translate(-3.101 -0.108)" fill="#fff"/>
        <path id="패스_3" data-name="패스 3" d="M77.459,30.277s-10.177-.556-11.622,2.3c0,0-3.172,4.525,8.79,3.525,0,0-.865-3.139,2.832-5.82" transform="translate(-15.564 -7.189)" fill="#fc0"/>
        <path id="패스_4" data-name="패스 4" d="M45.94,23.631S35.793,23.06,34.35,26c0,0-3.164,4.654,8.763,3.622,0,0-.861-3.228,2.826-5.987" transform="translate(-8.077 -5.608)" fill="#40a629"/>
        <path id="패스_5" data-name="패스 5" d="M60.831,10.3s-9.905-.552-11.309,2.281c0,0-3.087,4.49,8.553,3.5,0,0-.842-3.119,2.756-5.779" transform="translate(-11.687 -2.438)" fill="#ff7f00"/>
        <path id="패스_6" data-name="패스 6" d="M121.1,21.76a3.122,3.122,0,0,1-2.492,1.246,3.072,3.072,0,0,1-2.467-1.225,4.408,4.408,0,0,1,0-5.6,3.089,3.089,0,0,1,2.467-1.205,3.232,3.232,0,0,1,2.492,1.14,4.087,4.087,0,0,1,1.027,2.831A4.311,4.311,0,0,1,121.1,21.76m23.022-1.438h-5.471V11.939h-8.519v1.745h.84a1.587,1.587,0,0,1,1.265.49,1.548,1.548,0,0,1,.42,1.013V27.232a10.665,10.665,0,0,1-1.935.368c-.758.081-1.89.121-2.928.121H121.55V25.7a9.968,9.968,0,0,0,4.537-2.566,5.857,5.857,0,0,0,1.706-4.139,6.153,6.153,0,0,0-2.734-5.063,11.586,11.586,0,0,0-13.195,0,6.157,6.157,0,0,0-2.714,5.063,5.851,5.851,0,0,0,1.7,4.139A9.811,9.811,0,0,0,115.3,25.7v2.023h-8.479V31.2H126.11c1.487,0,2.963-.027,3.958-.086a14.03,14.03,0,0,0,2.588-.367v4.586h5.995V23.741h5.471ZM139.07,40.161H120.559a.7.7,0,0,1-.463-.14.47.47,0,0,1-.166-.384v-6.4H111.2v1.744h.844a1.721,1.721,0,0,1,1.258.42,1.377,1.377,0,0,1,.424,1.015v4.467a2.6,2.6,0,0,0,.841,2.148,4.037,4.037,0,0,0,2.567.68H139.07Z" transform="translate(-25.4 -2.822)" fill="#fff"/>
        <path id="패스_7" data-name="패스 7" d="M160.374,17.755a1.4,1.4,0,0,0-.41-1.012,1.614,1.614,0,0,0-1.214-.418h-.815V14.58h29.883v3.283H166.4V26.2a.624.624,0,0,0,.223.523.867.867,0,0,0,.55.175h20.847v3.214H165.044a5.386,5.386,0,0,1-3.554-.961,4.017,4.017,0,0,1-1.116-3.194ZM177.1,38.8H191.27V42.25H156.822V38.8h14.247l-.047-3.487a1.263,1.263,0,0,0-.386-.96,1.444,1.444,0,0,0-1.036-.367h-.649V32.27h8.1Z" transform="translate(-37.288 -3.467)" fill="#fff"/>
        <path id="패스_8" data-name="패스 8" d="M214.6,32.877v7.538a.49.49,0,0,0,.161.384.666.666,0,0,0,.446.14h20.351v3.287H211.9a3.8,3.8,0,0,1-2.48-.681,2.652,2.652,0,0,1-.809-2.146V36.058a1.4,1.4,0,0,0-.408-1.013,1.625,1.625,0,0,0-1.22-.418h-.81V32.877Zm19.3-7.5h4.5v3.49H225.062v7.443h-6.27V28.863H203.554v-3.49h24.394a5.126,5.126,0,0,0,.791-2.2,32.246,32.246,0,0,0,.142-3.373V17.848a.688.688,0,0,0-.16-.526,1.082,1.082,0,0,0-.651-.14H206.983V13.849h27.528a.455.455,0,0,1,.3.088.318.318,0,0,1,.1.26v5.169a27.774,27.774,0,0,1-.222,3.9,4.825,4.825,0,0,1-.793,2.111" transform="translate(-48.4 -3.293)" fill="#fff"/>
      </g>
    </g>
    <line id="선_1" data-name="선 1" y2="29" transform="translate(544 38)" fill="none" stroke="#fff" stroke-width="1" opacity="0.4"/>
    <text id="청산도" transform="translate(562 63)" fill="#fff" font-size="30" font-family="S-CoreDream-3Light, 'S-Core Dream \33 '" font-weight="300"><tspan x="0" y="0">청산도</tspan></text>
  </g>
</svg>
