<?xml version="1.0" encoding="UTF-8"?>
<svg id="Layer_1" data-name="Layer 1" xmlns="http://www.w3.org/2000/svg" version="1.1" viewBox="0 0 68.84 52.22">
  <defs>
    <style>
      .cls-1 {
        fill: #97bc31;
      }

      .cls-1, .cls-2, .cls-3, .cls-4, .cls-5 {
        stroke-width: 0px;
      }

      .cls-2 {
        fill: #eab883;
      }

      .cls-3 {
        fill: #9e7430;
      }

      .cls-4 {
        fill: #7b961a;
      }

      .cls-5 {
        fill: #845c21;
      }
    </style>
  </defs>
  <rect class="cls-5" x="30.73" y="39.81" width="3.13" height="3.1"/>
  <path class="cls-4" d="M55.37,27.31c-2.32,0-4.44-1.2-5.66-2.9v-.2h0v-7.7c1.21-1.8,3.33-2.9,5.66-2.9,3.84,0,6.97,3.1,6.97,6.9s-3.13,6.8-6.97,6.8Z"/>
  <path class="cls-1" d="M48.91,39.71c.91,0,1.62.7,1.62,1.6s-.71,1.6-1.62,1.6h-4.24v-5.6c.2,0,.4-.1.61-.1,1.51,0,2.73,1.2,2.83,2.6.2,0,.5-.1.81-.1Z"/>
  <path class="cls-1" d="M44.67,28.51c-2.83,0-5.05-2.2-5.05-5v-11.8c0-2.8,2.22-5,5.05-5,1.41,0,2.63.6,3.54,1.5.91.9,1.51,2.2,1.51,3.5v12.4c-.4,2.5-2.53,4.4-5.05,4.4Z"/>
  <path class="cls-1" d="M44.67,37.41v5.6h-3.43c-.91,0-1.62-.7-1.62-1.6s.71-1.6,1.62-1.6c.5,0,.91.2,1.21.5v-.1c0-1.4.91-2.6,2.22-2.8Z"/>
  <polygon class="cls-3" points="37.7 34.21 37.7 39.81 33.86 39.81 30.73 39.81 13.06 39.81 9.93 39.81 6.09 39.81 6.09 34.21 9.32 34.21 34.57 34.21 37.7 34.21"/>
  <rect class="cls-5" x="9.32" y="26.71" width="25.25" height="3.8"/>
  <rect class="cls-3" x="9.32" y="22.91" width="25.25" height="3.8"/>
  <rect class="cls-5" x="9.93" y="39.81" width="3.13" height="3.1"/>
  <path class="cls-3" d="M9.32,34.81c-.3,0-.61-.3-.61-.6v-13.2c0-.3.3-.6.61-.6s.61.3.61.6v13.1c0,.4-.3.7-.61.7Z"/>
  <path class="cls-3" d="M34.57,34.81c-.3,0-.61-.3-.61-.6v-13.2c0-.3.3-.6.61-.6s.61.3.61.6v13.1c0,.4-.3.7-.61.7Z"/>
  <g>
    <path class="cls-5" d="M46.79,18.61c-.3-.2-.71-.1-.91.2l-.71,1.2v-6.5c0-.3-.3-.6-.61-.6s-.61.3-.61.6v3.7l-1.41-1.8c-.2-.3-.61-.3-.91-.1-.3.2-.3.6-.1.9l2.42,3.2v2.3l-.81-1c-.2-.3-.61-.3-.91-.1-.3.2-.3.6-.1.9l1.82,2.3v19.2c0,.3.3.6.61.6s.61-.3.61-.6v-20.5l1.82-3c.2-.3.1-.7-.2-.9Z"/>
    <path class="cls-5" d="M57.6,21.21c-.3-.2-.71-.2-.91.1l-.81,1v-1.9c0-.3-.3-.6-.61-.6s-.61.3-.61.6v3.1l-.81-1c-.2-.3-.61-.3-.91-.1-.3.2-.3.6-.1.9l1.82,2.3v17.3c0,.3.3.6.61.6s.61-.3.61-.6v-18.5l1.82-2.3c.3-.3.2-.7-.1-.9Z"/>
  </g>
  <path class="cls-2" d="M62.34,43.51H4.27c-.3,0-.61-.3-.61-.6s.3-.6.61-.6h58.07c.3,0,.61.3.61.6,0,.4-.3.6-.61.6Z"/>
</svg>