<?xml version="1.0" encoding="UTF-8"?>
<svg id="Layer_1" data-name="Layer 1" xmlns="http://www.w3.org/2000/svg" version="1.1" viewBox="0 0 68.84 59.87">
  <defs>
    <style>
      .cls-1 {
        fill: #66535c;
      }

      .cls-1, .cls-2, .cls-3, .cls-4, .cls-5, .cls-6 {
        stroke-width: 0px;
      }

      .cls-2 {
        fill: #97bc31;
      }

      .cls-3 {
        fill: #676789;
      }

      .cls-4 {
        fill: #505070;
      }

      .cls-5 {
        fill: #66cded;
      }

      .cls-6 {
        fill: #83727a;
      }
    </style>
  </defs>
  <g>
    <path class="cls-3" d="M45.78,8.98v-3.1h-7.57v-3.1h-7.57v3.1h-7.57v3.1h-3.84v47.6h25.25v-3.8h5.05V8.98h-3.74Z"/>
    <polygon class="cls-6" points="49.52 21.48 44.47 21.48 44.47 25.28 44.47 30.28 44.47 35.28 44.47 40.28 44.47 45.28 44.47 47.78 44.47 52.78 44.47 56.48 61.53 56.48 61.53 21.48 49.52 21.48"/>
    <rect class="cls-4" x="19.22" y="52.78" width="25.25" height="3.8"/>
    <rect class="cls-5" x="46.99" y="49.98" width="12.02" height="2.5"/>
    <rect class="cls-5" x="46.99" y="44.98" width="12.02" height="2.5"/>
    <rect class="cls-5" x="46.99" y="39.98" width="12.02" height="2.5"/>
    <rect class="cls-5" x="46.99" y="34.98" width="12.02" height="2.5"/>
    <rect class="cls-5" x="46.99" y="29.98" width="12.02" height="2.5"/>
    <rect class="cls-5" x="46.99" y="24.98" width="12.02" height="2.5"/>
    <polygon class="cls-6" points="16.09 56.48 13.56 56.48 11.04 56.48 7.91 56.48 7.91 23.38 19.22 13.38 19.22 52.78 19.22 56.48 16.09 56.48"/>
    <path class="cls-1" d="M16.09,57.08c-.3,0-.61-.3-.61-.6V20.88c0-.3.3-.6.61-.6s.61.3.61.6v35.6c0,.3-.3.6-.61.6Z"/>
    <path class="cls-1" d="M13.56,57.08c-.3,0-.61-.3-.61-.6V22.78c0-.3.3-.6.61-.6s.61.3.61.6v33.8c0,.2-.3.5-.61.5Z"/>
    <path class="cls-1" d="M11.04,57.08c-.3,0-.61-.3-.61-.6v-31.2c0-.3.3-.6.61-.6s.61.3.61.6v31.3c0,.2-.3.5-.61.5Z"/>
    <path class="cls-2" d="M63.45,55.88H5.38c-.3,0-.61.3-.61.6s.3.6.61.6h58.07c.3,0,.61-.3.61-.6s-.3-.6-.61-.6Z"/>
  </g>
  <polygon class="cls-4" points="45.78 5.88 45.78 8.98 23.06 8.98 23.06 5.88 30.63 5.88 38.2 5.88 45.78 5.88"/>
</svg>