<?xml version="1.0" encoding="UTF-8"?>
<svg id="Layer_1" data-name="Layer 1" xmlns="http://www.w3.org/2000/svg" version="1.1" xmlns:xlink="http://www.w3.org/1999/xlink" viewBox="0 0 153.49 136.71">
  <defs>
    <style>
      .cls-1, .cls-2, .cls-3 {
        stroke-width: 0px;
      }

      .cls-1, .cls-4 {
        fill: #c1bbb4;
      }

      .cls-2 {
        fill: #89827d;
      }

      .cls-5 {
        clip-path: url(#clippath);
      }

      .cls-3 {
        fill: #3a241b;
      }
    </style>
    <clipPath id="clippath">
      <path class="cls-1" d="M131.84,110.86c4.44-2.94,8.17-6.66,10.36-11.47,3.51-7.7,2.37-16.73-.03-24.84-5.46-18.47-16.99-35.12-19.51-54.21-.37-2.81-.56-5.71-1.7-8.31-1.14-2.6-3.52-4.89-6.36-4.96-2.81-.06-5.18,1.98-7.11,4.02-4.76,5.02-8.73,10.79-11.71,17.04-16.81-4.26-34.91-3.31-51.18,2.71-2.94-4.13-6.27-7.99-9.93-11.5-1.75-1.68-3.68-3.34-6.04-3.94-6.79-1.71-6.93,5.5-7.33,10.14-.67,7.82.24,15.44.3,23.23.12,16.61-7.3,32.93-4.59,49.54,4.18,25.58,35.06,26.69,55.42,25.94,12.65-.46,25.69-1.41,38.08-4.69,6.91-1.83,14.86-4.43,21.3-8.7Z"/>
    </clipPath>
  </defs>
  <g>
    <path class="cls-4" d="M131.84,110.86c4.44-2.94,8.17-6.66,10.36-11.47,3.51-7.7,2.37-16.73-.03-24.84-5.46-18.47-16.99-35.12-19.51-54.21-.37-2.81-.56-5.71-1.7-8.31-1.14-2.6-3.52-4.89-6.36-4.96-2.81-.06-5.18,1.98-7.11,4.02-4.76,5.02-8.73,10.79-11.71,17.04-16.81-4.26-34.91-3.31-51.18,2.71-2.94-4.13-6.27-7.99-9.93-11.5-1.75-1.68-3.68-3.34-6.04-3.94-6.79-1.71-6.93,5.5-7.33,10.14-.67,7.82.24,15.44.3,23.23.12,16.61-7.3,32.93-4.59,49.54,4.18,25.58,35.06,26.69,55.42,25.94,12.65-.46,25.69-1.41,38.08-4.69,6.91-1.83,14.86-4.43,21.3-8.7Z"/>
    <g class="cls-5">
      <path class="cls-2" d="M76.42,25.09c-.71-3.98-4.76-5.28-7.66-4.24-3.08-.48-6.66,1.48-6.35,5.51.45,5.9.9,11.81,1.51,17.7.46,4.39,2.45,9.66,7.91,9.13,5.9-.58,6.36-6.75,6.28-11.34-.1-5.63-.7-11.22-1.68-16.76Z"/>
      <path class="cls-2" d="M48.54,24.78c-2.29.56-4.3,2.41-4.23,5.41.14,5.69-.78,16.2,5.7,18.87,2.87,1.18,5.49.03,7.06-2.52,3.87-6.29,1.55-13.26,1.45-20.1-.09-5.83-7.81-5.99-9.99-1.67Z"/>
      <path class="cls-2" d="M95.55,25.12c-.61-4.64-5.8-5.67-8.69-3.66-2.27.57-4.25,2.42-4.16,5.41.12,4.09.19,8.19.37,12.28.17,3.64,1.33,6.83,4.8,8.48,2.06.98,4.89.46,6.33-1.38,2.29-2.94,2.18-6.19,2.16-9.78-.01-3.8-.31-7.58-.81-11.35Z"/>
      <path class="cls-2" d="M34.36,72.97c-.74-2.44-3.16-3.34-5.43-3.44-5.4-.24-10.76,1.57-15.05,4.84-1.88.95-3.13,3.25-2.95,5.29.27,3.09,2.86,4.79,5.74,4.82,6.27.07,20.44-2.48,17.69-11.52Z"/>
      <path class="cls-2" d="M143.27,62.2c-.54.09-1.09.16-1.63.25-5.74-2.97-12.77-1.87-17.23,3.2-3.16,3.6.08,8.87,4.52,8.69,5.12-.21,10.2-.73,15.26-1.57,6.69-1.11,5.83-11.68-.92-10.56Z"/>
      <path class="cls-2" d="M151.4,84.2c-.46-1.72-1.7-3.24-3.87-3.82-7.73-2.05-15.98-1.28-23.17,2.23-3.78,1.84-5,7.86-.42,9.76,7.04,2.93,16.16.8,23.52,0,4.44-.49,5.58-5.19,3.94-8.17Z"/>
      <path class="cls-2" d="M32.63,89.2c-3.36-.83-6.81-.43-10.17.18-3.21.59-6.48,1.05-9.12,3.15-.99.63-1.61,1.52-1.91,2.48-.09.21-.16.43-.22.66-.74,2.89,1.1,5.47,3.88,6.25,5.25,1.46,12.9-.09,17.91-1.8,5.83-1.98,5.72-9.42-.36-10.93Z"/>
    </g>
  </g>
  <g>
    <g>
      <path class="cls-3" d="M60.55,58.88c-1.83.24-3.27,1.79-3.1,3.69l.29,3.33c.15,1.78,1.86,3.34,3.69,3.1,1.83-.24,3.27-1.79,3.1-3.69l-.29-3.33c-.15-1.78-1.86-3.34-3.69-3.1Z"/>
      <path class="cls-3" d="M92.68,56.1c-1.83.24-3.27,1.79-3.1,3.69l.29,3.33c.15,1.78,1.86,3.34,3.69,3.1,1.83-.24,3.27-1.79,3.1-3.69l-.29-3.33c-.15-1.78-1.86-3.34-3.69-3.1Z"/>
    </g>
    <g>
      <g>
        <path class="cls-3" d="M115.56,62.55c-.23-.63-.86-.81-1.46-.67-4.88,1.17-9.61,2.91-14.08,5.19-.55.28-.9.84-.67,1.46.19.52.91.95,1.46.67,4.48-2.28,9.2-4.01,14.09-5.19.6-.14.86-.93.67-1.46Z"/>
        <path class="cls-3" d="M114.91,71.68c-4.11-.99-8.4-1.18-12.59-.56-1.44.21-1.25,2.48.2,2.26,4-.59,8.04-.41,11.98.54,1.43.34,1.83-1.9.41-2.23Z"/>
      </g>
      <g>
        <path class="cls-3" d="M58.94,72.66c-5.61-1.69-11.39-2.7-17.24-3-.62-.03-1.2.25-1.32.91-.11.54.3,1.29.91,1.32,5.85.3,11.64,1.31,17.24,3,1.4.42,1.8-1.82.41-2.23Z"/>
        <path class="cls-3" d="M56.83,76.02c-3.49.41-6.98.83-10.46,1.24-1.45.17-1.26,2.44.2,2.26,3.49-.41,6.98-.83,10.46-1.24,1.45-.17,1.26-2.44-.2-2.26Z"/>
      </g>
    </g>
    <g>
      <path class="cls-3" d="M86.22,84.37c-.79-.11-1.06.41-1.34,1-.47.98-1.51,1.28-2.48.87-1.18-.5-1.83-1.78-2.11-2.96-.25-1.04-.26-2.29-.27-3.42,0-.09-.02-.18-.05-.26,1.65-1.03,2.92-3.35,3.73-5.07.46-.98.42-2.13-.42-2.89-.74-.67-1.75-.75-2.7-.63-2.3.27-4.59.59-6.88.89-.86.11-1.54,1.34-1.3,2.15.29.93.78,1.79,1.33,2.6,1.08,1.58,2.15,2.8,4.01,3.44.11.04.33,2.34.36,2.63.17,1.65.16,4-1.88,4.47-.88.2-1.61-.17-2.26-.72-.02-.02-.04-.03-.05-.04,0-.01-.01-.02-.03-.04-.06-.08-.12-.15-.18-.23s-.11-.16-.16-.25c-.01-.02-.01-.02-.02-.04-.07-.2-.16-.39-.21-.6-.15-.58-.94-.89-1.46-.67-.61.26-.83.84-.67,1.46.56,2.17,2.96,3.77,5.18,3.41,1.46-.24,2.68-1.15,3.38-2.37.2.21.4.4.64.59,1.09.83,2.49,1.21,3.84.91,1.48-.33,2.54-1.44,2.91-2.9.15-.58-.33-1.24-.91-1.32Z"/>
      <g>
        <path class="cls-3" d="M36.6,31.06c-.69-2.01-1.91-4.09-4.19-4.51-2.02-.37-3.75.95-4.46,2.76-.73,1.86-.72,3.94-.67,5.91.06,2.63.47,5.23,1.12,7.77.2.79,1.24,1.16,1.95.89.83-.31,1.1-1.15.89-1.95-.57-2.23-.88-4.54-.94-6.84-.04-1.57-.17-3.74.64-5.05.03-.05.17-.24.25-.32,0,0,.22-.16.1-.1.26-.14.48-.16.78-.05.76.28,1.16,1.16,1.43,1.85.82,2.08,1.31,4.29,1.59,6.5.24,1.93,3.26,1.68,3.02-.26-.28-2.24-.78-4.47-1.51-6.61Z"/>
        <path class="cls-3" d="M116.9,21.01c-.68-1.7-2.15-2.9-4.04-2.82-1.8.08-3.26,1.29-4.15,2.78-1.04,1.74-1.37,3.95-1.86,5.89-.2.79.45,1.62,1.21,1.76.85.16,1.56-.42,1.76-1.21.43-1.69.68-3.58,1.57-5.06.33-.55.71-.86,1.24-1.05.05-.02.11-.04.16-.05.02,0,.07,0,.15-.02.04,0,.06,0,.08-.01.02,0,.06,0,.15,0,.13.03.18.04.15.02.05.02.11.04.16.07.05.03.12.06.23.18-.04-.03.16.22.18.25.1.15.08.14.18.4.12.32.19.57.22.75.17.95.26,1.92.27,2.88.03,1.86-.29,3.71-.83,5.49-.24.78.48,1.63,1.22,1.76.88.16,1.52-.43,1.76-1.22.55-1.81.82-3.66.86-5.55.04-1.72-.06-3.64-.7-5.25Z"/>
      </g>
    </g>
  </g>
</svg>