<?xml version="1.0" encoding="UTF-8"?>
<svg id="Layer_1" data-name="Layer 1" xmlns="http://www.w3.org/2000/svg" version="1.1" viewBox="0 0 117.1 136.71">
  <defs>
    <style>
      .cls-1 {
        fill: #dd3646;
      }

      .cls-1, .cls-2, .cls-3, .cls-4, .cls-5 {
        stroke-width: 0px;
      }

      .cls-2 {
        fill: #f4f4f4;
      }

      .cls-3 {
        fill: none;
      }

      .cls-4 {
        fill: #b72e42;
      }

      .cls-5 {
        fill: #933245;
      }
    </style>
  </defs>
  <line class="cls-3" x1="-510.91" y1="-549.54" x2="-510.91" y2="-549.54"/>
  <g>
    <path class="cls-5" d="M15.14,115.97h12.17v1.81c0,3.05-2.47,5.52-5.52,5.52h-1.13c-3.05,0-5.52-2.47-5.52-5.52v-1.81h0Z"/>
    <path class="cls-5" d="M92.9,115.97h12.17v1.81c0,3.05-2.47,5.52-5.52,5.52h-1.13c-3.05,0-5.52-2.47-5.52-5.52v-1.81h0Z"/>
    <line class="cls-3" x1="8.4" y1="103.21" x2="8.4" y2="103.21"/>
    <path class="cls-4" d="M76.7,52.67v-13.76c0-3.44-2.79-6.22-6.22-6.22h-20.74c-3.44,0-6.22,2.79-6.22,6.22v13.76h33.19-.01Z"/>
    <path class="cls-1" d="M112.07,32.65v10.24c0,3.91-3.68,6.78-7.49,5.84l-18.01-4.19c-2.66-.67-4.55-3.06-4.55-5.82v-7.48c0-1.27-.82-2.44-2.07-2.84-2.68-.89-8.45-2.47-19.14-2.47s-16.48,1.57-19.16,2.47c-1.25.39-2.06,1.55-2.06,2.84l-.02,7.48c0,2.76-1.89,5.16-4.55,5.82l-17.99,4.19c-3.81.94-7.49-1.93-7.49-5.84v-10.24c0-2.08.87-4.1,2.41-5.51,5.74-5.22,21.8-17.13,48.86-17.13,27.07.02,43.12,11.91,48.86,17.13,1.54,1.41,2.42,3.41,2.41,5.51h-.01Z"/>
    <path class="cls-4" d="M111.96,105.41v8.18c0,2.29-1.86,4.15-4.15,4.15H12.4c-2.29,0-4.15-1.86-4.15-4.15v-8.18c0-.73.05-1.47.15-2.19l2.95-2.56h97.4l3.08,2.56c.1.73.15,1.46.15,2.19h-.02Z"/>
    <path class="cls-1" d="M111.82,103.21H8.4c.09-.71.24-1.42.42-2.12l13.12-48.74c.49-1.81,2.13-3.07,4.01-3.07h68.31c1.88,0,3.52,1.26,4.01,3.07l13.12,48.74c.19.7.33,1.41.42,2.12h.01Z"/>
    <path class="cls-4" d="M86.88,77.96c0,9.74-11.99,17.63-26.77,17.63s-26.77-7.89-26.77-17.63v-3.99h53.54v3.99Z"/>
    <ellipse class="cls-2" cx="60.11" cy="73.97" rx="26.77" ry="17.63"/>
    <ellipse class="cls-4" cx="60.11" cy="60.99" rx="3.78" ry="2.49"/>
    <ellipse class="cls-4" cx="46.93" cy="64.95" rx="3.78" ry="2.49"/>
    <ellipse class="cls-4" cx="39.38" cy="73.87" rx="3.78" ry="2.49"/>
    <ellipse class="cls-4" cx="73.54" cy="64.95" rx="3.78" ry="2.49"/>
    <ellipse class="cls-4" cx="60.11" cy="86.76" rx="3.78" ry="2.49"/>
    <ellipse class="cls-4" cx="46.93" cy="82.8" rx="3.78" ry="2.49"/>
    <ellipse class="cls-4" cx="73.54" cy="82.8" rx="3.78" ry="2.49"/>
    <ellipse class="cls-4" cx="81.09" cy="73.87" rx="3.78" ry="2.49"/>
    <ellipse class="cls-4" cx="60.11" cy="72.95" rx="8.02" ry="5.28"/>
  </g>
</svg>