<?xml version="1.0" encoding="UTF-8"?>
<svg id="Layer_1" data-name="Layer 1" xmlns="http://www.w3.org/2000/svg" version="1.1" viewBox="0 0 170.9 136.71">
  <defs>
    <style>
      .cls-1 {
        fill: #e8b483;
      }

      .cls-1, .cls-2 {
        stroke-width: 0px;
      }

      .cls-2 {
        fill: #391b0f;
      }
    </style>
  </defs>
  <path class="cls-1" d="M102.77,6.24c-22.59-5.02-46.02-2.43-64.08,13.02C21.25,34.19,10.99,56.22,6.67,78.77c-1.35,7.08-2.07,14.84,1.48,21.12,3.67,6.5,11.47,10.01,18.93,9.8,7.47-.22,15-5.05,20.78-9.79,2.63,2.52,4.22,4.23,6.51,5.41,13.08,6.75,29.47,5.97,43.35,2.16,4.5-1.24,8.95-2.96,12.86-5.55-1.79,17.63,10.3,27.66,26.32,27.84,26.62.3,32.68-27.79,29.82-48.34-3.32-23.84-16.09-46.73-35.12-61.58-9.09-7.09-18.72-11.35-28.83-13.6Z"/>
  <g>
    <path class="cls-2" d="M112.35,98.5c.66,0,1.21-.49,1.29-1.14,1.42-11.71,4.21-24.02,8.29-33.9,1.65-3.99,3.51-7.89,5.57-11.69.29-.54-.07-1.27-.6-1.5-.61-.26-1.21.05-1.5.6-7.31,13.5-12.09,28.36-14.06,43.58-.1.76-.2,1.64-.3,2.6-.08.77.52,1.45,1.29,1.45,0,0,.02,0,.03,0Z"/>
    <path class="cls-2" d="M47.86,99.9c-5.06-5.31-8.65-12.02-10.26-19.17-1.96-8.74-.86-17.9,2.97-25.99,2.16-4.57,5.17-8.75,8.88-12.2.45-.42.62-1.07.22-1.6-.34-.45-1.15-.64-1.6-.22-7.03,6.55-11.73,15.4-13.23,24.9-1.43,9.12.3,18.6,4.71,26.69,1.79,3.28,3.97,6.31,6.52,9.01.66-.4,1.27-.85,1.79-1.42Z"/>
    <path class="cls-2" d="M66.97,16.87c-6.81,3.4-12.39,8.95-15.88,15.71-.98,1.9-2.73,6.22-3.33,8.27-.17.59-.01,1.24.6,1.5.52.22,1.32,0,1.5-.6,2.6-8.78,9.78-18.67,17.99-22.77,1.31-.65.45-2.77-.87-2.11Z"/>
  </g>
  <g>
    <g>
      <path class="cls-2" d="M71.46,43.58c-1.89-5.97-8.09-3.16-7.86,2.22.35,8.04,10.25,5.35,7.86-2.22Z"/>
      <path class="cls-2" d="M95.4,49.79c3.43-5.24,8.65-.86,6.97,4.26-2.51,7.65-11.32,2.38-6.97-4.26Z"/>
    </g>
    <path class="cls-2" d="M88.67,72.6c-.61-.26-1.21.05-1.5.6-1.86,3.48-6.6,4.64-9.97,2.91-.01-.09-.04-.19-.08-.28-.85-2.08-.8-4.46.09-6.5.08,0,.17.02.25.02,3.29.3,8.02.79,9.45-3.08.67-1.8,0-3.87-1.44-5.1-.65-.55-1.36-.9-2.11-1.09-.53-.34-1.19-.52-1.97-.45-1.89.17-3.66-.82-5.61-.51-1.8.29-3.45,1.33-4.25,3-.78,1.64-.76,3.59.37,5.07.77,1.01,1.84,1.51,3,1.78-.85,2.33-.88,4.92-.03,7.29-.08,0-.15.01-.23.02-.03,0-.05,0-.07,0,0,0,0,0-.02,0-.39,0-.77-.06-1.15-.16-.01,0-.02,0-.04-.01-.11-.04-.21-.07-.32-.11-.17-.07-.34-.14-.51-.23-.01,0-.12-.07-.17-.09-.05-.03-.14-.09-.15-.1-.17-.12-.33-.24-.48-.38-.02-.01-.08-.08-.11-.1-.05-.05-.09-.1-.14-.15-.12-.13-.22-.28-.33-.42-.05-.07-.1-.15-.15-.22-.02-.02-.02-.04-.03-.05,0-.02-.02-.04-.03-.07-.08-.16-.15-.32-.22-.49-.06-.15-.11-.3-.15-.45,0-.04-.02-.11-.03-.13-.02-.09-.03-.17-.05-.26-.03-.19-.03-.39-.06-.58,0-.01,0-.02,0-.03,0-.01,0-.02,0-.04,0-.11.01-.21.02-.32.05-.59-.34-1.23-.98-1.29-.59-.05-1.23.34-1.29.98-.18,2.01.57,3.97,2.04,5.35,1.44,1.35,3.64,1.92,5.56,1.49.18-.04.35-.12.5-.22,4.53,2.37,10.57.34,12.96-4.12.29-.54-.07-1.27-.6-1.5Z"/>
  </g>
</svg>