<?xml version="1.0" encoding="UTF-8"?>
<svg id="Layer_1" data-name="Layer 1" xmlns="http://www.w3.org/2000/svg" version="1.1" viewBox="0 0 665.13 204.13">
  <defs>
    <style>
      .cls-1 {
        fill: #f9f9f9;
      }

      .cls-1, .cls-2, .cls-3 {
        stroke-width: 0px;
      }

      .cls-2 {
        fill: #1d1d1d;
      }

      .cls-3 {
        fill: #fff;
      }
    </style>
  </defs>
  <g>
    <polyline class="cls-2" points="245.09 99.53 245.09 28.27 233.44 28.27 233.44 19.6 233.44 28.27 225.04 28.27 225.04 38.29 215.01 38.29 215.01 46.15 206.07 46.15 206.07 57.26 183.58 57.26 183.58 49.4 173.56 49.4 173.56 28 163.53 28 163.53 19.6 163.53 28 155.13 28 155.13 36.67 146.19 36.67 146.19 45.61 137.52 45.61 137.52 54.01 129.12 54.01 129.12 61.6 113.4 61.6 113.4 70.54 106.08 70.54 106.08 78.13 93.35 78.13 93.35 114.98 72.21 114.98 72.21 105.77 66.52 105.77 66.52 88.42 58.39 88.42 58.39 79.75 39.97 79.75 39.97 101.16 47.56 101.16 47.56 119.31 56.77 119.31 56.77 127.31 74.38 127.31 74.38 135.3 108.25 135.3 108.25 145.06 122.61 145.06 122.61 156.98 215.83 156.98 215.83 148.85 231.27 148.85 231.27 139.37 239.67 139.37 239.67 129.07 249.97 129.07 249.97 97.64 249.97 91.61"/>
    <path class="cls-3" d="M219.33,160.48h-100.21v-11.92h-14.36v-9.75h-33.87v-7.99h-17.61v-7.99h-9.21v-18.16h-7.59v-28.41h25.43v8.67h8.13v17.34h5.69v9.21h14.14v-36.85h12.74v-7.59h7.32v-8.94h15.72v-7.59h8.4v-8.4h8.67v-8.94h8.94v-8.67h8.4v-4.9h7v4.9h10.03v21.41h10.03v7.86h15.49v-11.11h8.94v-7.86h10.03v-10.03h8.4v-5.17h7v5.17h11.65v66.84h4.88v40.96h-10.3v10.3h-8.4v9.48h-15.45v8.13ZM126.11,153.48h86.21v-8.13h15.45v-9.48h8.4v-10.3h10.3v-26.04h-4.88V31.77h-13.05v10.03h-10.03v7.86h-8.94v11.11h-29.49v-7.86h-10.03v-21.41h-11.43v8.67h-8.94v8.94h-8.67v8.4h-8.4v7.59h-15.72v8.94h-7.32v7.59h-12.74v36.85h-28.14v-9.21h-5.69v-17.34h-8.13v-8.67h-11.43v14.41h7.59v18.16h9.21v7.99h17.61v7.99h33.87v9.75h14.36v11.92Z"/>
  </g>
  <g>
    <line class="cls-3" x1="164.48" y1="105.6" x2="164.48" y2="123.21"/>
    <rect class="cls-3" x="159.98" y="105.6" width="9" height="17.61"/>
  </g>
  <g>
    <line class="cls-3" x1="224.63" y1="105.6" x2="224.63" y2="123.21"/>
    <rect class="cls-3" x="220.13" y="105.6" width="9" height="17.61"/>
  </g>
  <g>
    <line class="cls-3" x1="238.69" y1="19.6" x2="238.69" y2="28.27"/>
    <rect class="cls-1" x="235.19" y="19.6" width="7" height="8.67"/>
  </g>
  <g>
    <path class="cls-3" d="M278.41,126.83c-.48-.66-.63-1.32-.45-1.98.06-.12.07-.25.04-.4-.03-.15-.04-.28-.04-.41.12-1.56.15-2.92.09-4.09-.06-1.17-.15-2.53-.27-4.1-.06-.66-.08-1.18-.04-1.57.03-.39.07-.91.13-1.58.06-.72.09-1.31.09-1.75s-.03-1.06-.09-1.85c0-.66-.03-1.29-.09-1.89-.06-.6-.03-1.23.09-1.89.06-.18.07-.34.05-.5-.03-.15-.05-.32-.05-.5,0-.36-.02-.69-.04-.99-.03-.3-.04-.6-.04-.9,0-.18.1-.37.31-.58.21-.21.41-.34.58-.41.12,0,.27.02.45.04.18.03.33.04.45.04s.28-.03.49-.09c.21-.06.37-.09.5-.09.6.06,1.11.09,1.53.09h1.53c.3-.24.63-.32.99-.23.36.09.72.14,1.08.14.54.06,1.06.08,1.58.04.51-.03,1-.04,1.48-.04.66,0,1.29.01,1.89.04.6.03,1.23.04,1.89.04.84-.06,1.69-.1,2.56-.13.87-.03,1.72-.05,2.56-.05,1.02,0,2.02-.03,3.02-.09.99-.06,1.99-.03,3.01.09.84.06,1.68.09,2.52.09h2.52c.84,0,1.68-.01,2.52-.04.84-.03,1.68.01,2.52.13.66.12,1.24.15,1.75.09.51-.06.97-.03,1.4.09.06.12.09.39.09.81,0,.48.01.92.04,1.3.03.39.01.83-.04,1.3v.9c0,.3-.03.6-.09.9-.06.72-.06,1.38,0,1.98.06.12.07.26.04.41-.03.15-.04.31-.04.5-.54.18-1.14.3-1.8.36-.66.06-1.2.03-1.62-.09-.42-.12-.81-.15-1.17-.09-.36.06-.75.09-1.17.09-.12,0-.26.02-.41.04-.15.03-.29.04-.4.04-.84-.06-1.68-.06-2.52,0-.84.06-1.68.03-2.52-.09-.48-.12-.94-.16-1.4-.13-.45.03-.92.04-1.4.04-.72-.06-1.43-.07-2.11-.04-.69.03-1.4-.01-2.12-.13-1.14.12-2.28.15-3.42.09-1.14-.06-2.31-.03-3.51.09h-.72c-.24,0-.48.09-.72.27,0,.12-.02.27-.04.45-.03.18-.04.33-.04.45,0,1.56.01,2.87.04,3.92.03,1.05.01,1.88-.04,2.47,0,.24.01.48.04.72.03.24.16.45.41.63h.72c.42-.06.81-.09,1.17-.09h1.08c.84,0,1.71.03,2.61.09.9.06,1.77.06,2.61,0l4.68-.27c.3-.06.61-.04.95.04.33.09.67.08,1.03-.04.3-.06.61-.07.95-.04.33.03.64.08.94.13.84.12,1.75.15,2.75.09.99-.06,1.94-.09,2.83-.09,1.32.06,2.62.12,3.92.18,1.29.06,2.56.06,3.82,0,.12,0,.3.06.54.18.3,1.02.41,2,.32,2.92-.09.93-.05,1.91.13,2.92,0,.6-.15,1.11-.45,1.53-.36-.06-.78-.1-1.26-.13-.48-.03-.9-.01-1.26.04-.48.12-.99.17-1.53.13-.54-.03-1.08-.01-1.62.04-.48,0-.87.03-1.17.09-.3,0-.6.02-.9.05-.3.03-.6.04-.9.04-.78,0-1.56.01-2.34.04-.78.03-1.56.08-2.34.13-.24,0-.45-.01-.63-.04-.18-.03-.36-.04-.54-.04-.48-.06-.94-.06-1.4,0-.45.06-.74.24-.85.54-.18.66-.24,1.34-.18,2.02.06.69.03,1.37-.09,2.03.12.06.21.12.27.18.06.06.15.09.27.09,1.2,0,2.37.04,3.51.14,1.14.09,2.25.08,3.33-.04.18-.06.33-.08.45-.05.12.03.21.05.27.05.84.3,1.68.4,2.52.31.84-.09,1.68-.04,2.52.13.24.06.48.08.72.04.24-.03.51-.04.81-.04h2.39c.99,0,1.72-.03,2.2-.09h.68c.33,0,.55.03.67.09l1.35.36c.06.24.1.63.13,1.17.03.54.01.93-.04,1.17.06.96.09,1.92.09,2.88s-.06,1.41-.18,1.35c-.24.12-.48.18-.72.18-.66.18-1.32.29-1.98.32-.66.03-1.35.04-2.07.04h-8.37c-.3-.06-.62-.1-.94-.14-.33-.03-.65-.04-.94-.04h-4.23c-.96,0-1.91-.01-2.84-.04-.93-.03-1.88-.04-2.83-.04-1.02,0-2.06-.01-3.1-.04-1.05-.03-2.09-.04-3.1-.04h-3.87c-.9.06-1.8.08-2.7.04-.9-.03-1.77-.1-2.61-.22-.3-.06-.6-.08-.9-.04-.3.03-.6.08-.9.13-.66,0-1.28.02-1.84.04-.57.03-1.19.04-1.85.04-.3.06-.63.11-.99.13-.36.03-.72.04-1.08.04-.12,0-.21.02-.27.04-.06.03-.15.04-.27.04-.66-.06-1.29-.1-1.89-.13-.6-.03-1.23-.04-1.89-.04-.06,0-.15-.06-.27-.18-.06-.6-.12-1.17-.18-1.71-.06-.54-.09-1.11-.09-1.71,0-.54-.04-1.08-.13-1.62s-.11-1.08-.04-1.62l.36-.45h.54c.78.06,1.54.11,2.29.13.75.03,1.54.05,2.39.05h9.99c.9,0,1.8.03,2.7.09h1.71c.42.12.69.15.81.09.48-.18.99-.15,1.53.09l.18-.36c-.24-.78-.35-1.56-.31-2.34.03-.78-.02-1.56-.14-2.34,0-.06-.09-.18-.27-.36-.48-.12-1.01-.18-1.57-.18h-1.67c-.54,0-1.08.02-1.62.04-.54.03-1.08-.01-1.62-.13-.54-.06-1.08-.06-1.62,0-.54.06-1.11.09-1.71.09-.48-.06-.99-.1-1.53-.13-.54-.03-1.08-.04-1.62-.04-.6,0-1.16.02-1.67.04-.51.03-1.07.04-1.67.04ZM301.18,171.47c-.66,0-1.3-.03-1.94-.09-.63-.06-1.28-.03-1.93.09-.54.12-1.08.14-1.62.04-.54-.09-1.08-.13-1.62-.13-1.02.06-2,.03-2.92-.09-.93-.12-1.91-.27-2.93-.45-2.64-.36-5.16-.99-7.56-1.89-.66-.18-1.2-.48-1.62-.9-.24-.18-.47-.36-.68-.54-.21-.18-.47-.3-.77-.36-.3-.12-.53-.27-.67-.45-.15-.18-.35-.33-.58-.45-.24-.18-.45-.39-.63-.63-.18-.24-.42-.42-.72-.54-.24-.12-.36-.3-.36-.54,0-.42-.11-.8-.31-1.12-.21-.33-.41-.65-.58-.95-.3-.54-.5-1.08-.58-1.62-.09-.54-.17-1.05-.23-1.53,0-.66.01-1.31.04-1.94.03-.63.07-1.27.13-1.93.06-.36.15-.69.27-.99.12-.3.21-.63.27-.99.06-.42.16-.78.32-1.08.15-.3.31-.6.49-.9.12-.18.27-.34.45-.5.18-.15.33-.32.45-.5.18-.18.39-.51.63-.99.24-.48.54-.88.9-1.21.36-.33.69-.7.99-1.12.18-.3.42-.52.72-.67.3-.15.6-.28.9-.41.36-.24.72-.43,1.08-.58.36-.15.72-.34,1.08-.58.66-.48,1.36-.84,2.11-1.08.75-.24,1.54-.42,2.39-.54,1.02-.24,2.02-.41,3.02-.5.99-.09,1.99-.22,3.01-.4,1.38-.18,2.77-.25,4.19-.23,1.41.03,2.83.04,4.27.04.48,0,.96-.01,1.44-.04.48-.03.96.02,1.44.13.3.06.58.08.85.05s.55-.05.85-.05c.36-.06.7-.09,1.03-.09s.68.06,1.04.18.72.12,1.08,0c.78-.06,1.53.03,2.25.27,1.2.42,2.37.86,3.51,1.3,1.14.45,2.28.95,3.42,1.49.42.18.82.36,1.21.54.39.18.77.39,1.12.63.12.06.3.21.54.45l.99.9c.54.36.99.78,1.35,1.26.36.48.72.96,1.08,1.44.18.24.33.5.45.77.12.27.24.55.36.85.48,1.02.81,2.06.99,3.11.18,1.05.3,2.08.36,3.1,0,.6-.09,1.14-.27,1.62-.18.48-.33,1.02-.45,1.62-.06.3-.17.6-.31.9-.15.3-.29.6-.4.9-.3.66-.65,1.25-1.04,1.75-.39.51-.83,1-1.31,1.49l-.81.9-1.26.81c-.78.3-1.53.63-2.25.99-.72.36-1.5.6-2.34.72l-1.71.54c-1.68.3-3.3.45-4.86.45-.78,0-1.62.06-2.52.18-.9.12-1.74.21-2.52.27-.78.06-1.43.09-1.94.09s-.8-.09-.85-.27ZM293.53,156.98c.12.12.23.26.31.4.09.15.19.28.31.41l.99.27c.66.18,1.27.3,1.84.36.57.06,1.15.09,1.76.09h4.95c.18,0,.45-.06.81-.18.36-.12.6-.35.72-.67.12-.33.03-.64-.27-.95l-.45-.36c-.84-.36-1.67-.64-2.48-.85-.81-.21-1.67-.32-2.56-.32-.42,0-.83.02-1.21.04-.39.03-.83.08-1.31.14-.48.06-.99.12-1.53.18-.54.06-1.05.21-1.53.45l-.36.99Z"/>
    <path class="cls-3" d="M390.64,134.21c0,.48-.02,1.02-.04,1.62-.03.6-.02,1.14.04,1.62-.06.3-.2.45-.41.45h-.67c-.96,0-1.85-.01-2.66-.04s-1.64-.01-2.47.04h-1.26c-.54,0-1.08-.01-1.62-.04s-1.03-.06-1.48-.09c-.45-.03-.74-.04-.86-.04-.84.12-1.68.2-2.52.23-.84.03-1.68.08-2.52.13-.3.06-.62.08-.94.04-.33-.03-.65-.07-.95-.13-.48-.06-.98-.09-1.49-.09h-1.57c-.18.78-.26,1.56-.23,2.34.03.78-.02,1.53-.13,2.25.48,0,.95.02,1.39.04.45.03.88.04,1.31.04h2.65c.87,0,1.76.03,2.66.09,1.32.12,2.22.12,2.7,0,.48-.12.99-.18,1.53-.18.84-.06,1.67-.04,2.47.04s1.63.11,2.47.04c.66-.06,1.23-.09,1.71-.09s1.02.12,1.62.36c.24.12.34.3.32.54-.03.24-.04.45-.04.63.06.3.09.75.09,1.35.06.66.1,1.3.13,1.93.03.63.01,1.31-.04,2.03-.06.3-.11.75-.13,1.35-.03.6-.04,1.23-.04,1.89s.01,1.29.04,1.89c.03.6.04,1.05.04,1.35v1.4c0,.57-.06.95-.18,1.12-.12.06-.35.09-.68.09h-.76c-.66.06-1.3.1-1.93.13s-1.28.04-1.94.04c-.72,0-1.47.03-2.25.09-.78.06-1.59.09-2.43.09-.3,0-.6-.04-.9-.14-.3-.09-.6-.11-.9-.04-1.26.12-2.54.17-3.83.14-1.29-.03-2.27-.08-2.93-.14-1.56-.12-3.12-.11-4.68.04-1.56.15-2.94.19-4.14.14-1.02-.06-1.91-.09-2.66-.09s-1.67.03-2.75.09c-.9.06-1.84.1-2.83.13-.99.03-2.02.01-3.1-.04.06.3.06.72,0,1.26-.06.54-.09.87-.09.99s-.03.28-.09.5c-.06.21-.03.37.09.5.12-.06.27-.09.45-.09h.45c.42.06.99.06,1.71,0,.72-.06,1.29-.09,1.71-.09h2.48c.99,0,2.02-.02,3.1-.04,1.08-.03,2.16-.06,3.24-.09,1.08-.03,2.07-.04,2.97-.04,1.38-.06,2.71-.06,4,0,1.29.06,2.6.15,3.92.27.72.06,1.47.05,2.25-.04.78-.09,1.56-.13,2.34-.13.72,0,1.56-.02,2.52-.04.96-.03,1.89.01,2.79.13.78.12,1.59.17,2.43.14.84-.03,1.62-.08,2.34-.14.18-.06.27.04.27.32s.03.52.09.76c.18.78.24,1.75.18,2.92-.06,1.17-.06,2.12,0,2.83.06.24-.12.39-.54.45-.42.06-.78.09-1.08.09-.66.06-1.34.12-2.03.18-.69.06-1.37.06-2.03,0-2.1-.12-4.17-.13-6.21-.04-2.04.09-4.11.16-6.21.22-.66,0-1.32.03-1.98.09-.66.06-1.35.09-2.07.09-.6,0-1.2-.04-1.8-.13-.6-.09-1.2-.13-1.8-.13-1.56,0-3.12-.03-4.68-.09-1.56-.06-3.12-.03-4.68.09-.9.12-1.82.18-2.75.18h-2.75c-1.14-.06-2.25-.13-3.33-.22s-2.19-.17-3.33-.23c-.72-.06-1.39-.09-2.02-.09h-1.94c-.6,0-.84-.18-.72-.54-.06-.84-.03-1.77.09-2.79.12-1.02.18-2.04.18-3.06l-.18-3.87v-5.04c0-.18.03-.34.09-.5.06-.15.12-.28.18-.41.3-.06.69-.09,1.17-.09h2.07l2.7.27c.48.12.9.15,1.26.09.84-.12,1.65-.13,2.43-.04.78.09,1.59.08,2.43-.04.24,0,.64.02,1.21.04.57.03,1.16.06,1.76.09.6.03,1.17.04,1.71.04s.93-.03,1.17-.09c.12-.06.28-.09.5-.09h.58c.42.06.97.11,1.67.13.69.03,1.27.02,1.75-.04.3-.06.72-.09,1.26-.09h5.26c1.23,0,2.38.03,3.46.09.84.06,1.63.09,2.39.09h2.38c.12,0,.3.02.54.04.24.03.42.02.54-.04.12-.12.16-.36.13-.72-.03-.36-.04-.6-.04-.72,0-.24.03-.54.09-.9.06-.36.06-.57,0-.63-.06-.06-.48-.09-1.26-.09-1.14-.06-2.27-.1-3.38-.14-1.11-.03-2.24-.04-3.38-.04-1.02-.06-2.01-.07-2.97-.04-.96.03-1.95.02-2.97-.04h-2.75c-.93,0-1.82.06-2.65.18-.36.06-.74.08-1.12.04-.39-.03-.77-.08-1.12-.14-1.2-.12-2.43-.19-3.69-.22-1.26-.03-2.49-.04-3.69-.04-.96,0-1.95-.01-2.97-.04-1.02-.03-2.04-.04-3.06-.04-.6,0-1.23.03-1.89.09-.66.06-1.02.06-1.08,0-.24-.12-.41-.37-.5-.76-.09-.39-.14-.71-.14-.95,0-.3.01-.64.05-1.04.03-.39.04-.82.04-1.3,0-.3.01-.71.04-1.21.03-.51.04-.79.04-.86,0-.18-.04-.39-.13-.63-.09-.24-.11-.42-.05-.54.12-.06.25-.13.41-.22.15-.09.32-.14.5-.14.42-.06.75-.1.99-.13.24-.03.57-.04.99-.04h1.8c1.56-.12,3.04-.09,4.46.09,1.41.18,2.8.21,4.18.09.66-.06,1.6-.04,2.83.04,1.23.09,2.26.08,3.11-.04.3-.06.61-.07.94-.04.33.03.77.08,1.31.13.12-.48.15-.9.09-1.26-.06-.3-.09-.63-.09-.99s-.06-.72-.18-1.08c-.3-.24-.57-.38-.81-.41-.24-.03-.51-.04-.81-.04-.54-.06-1.07-.1-1.58-.14-.51-.03-1.01-.1-1.49-.22-.6-.06-1.2-.06-1.8,0-.6.06-1.17.08-1.71.04-.54-.03-1.11-.04-1.71-.04-.96,0-1.91-.01-2.83-.04-.93-.03-1.88-.04-2.83-.04-.96-.06-1.92-.1-2.88-.13-.96-.03-1.92-.04-2.88-.04-.3-.3-.45-.69-.45-1.17-.06-.84-.08-1.65-.04-2.43.03-.78.04-1.59.04-2.43l.27-.99h2.97c.48,0,.93-.01,1.35-.04.42-.03.87-.07,1.35-.13h1.89c.96.06,1.89.09,2.79.09h3.51c.24,0,.48-.03.72-.09.84-.12,1.68-.19,2.52-.23.84-.03,1.68-.04,2.52-.04,1.62,0,3.24-.01,4.86-.04,1.62-.03,3.24-.04,4.86-.04.72,0,1.44.03,2.16.09.72.06,1.44.15,2.16.27.78.12,1.56.17,2.34.13.78-.03,1.56-.04,2.34-.04.6,0,1.18-.01,1.75-.04.57-.03,1.16-.07,1.76-.13.24,0,.48.01.72.04.24.03.45.04.63.04.84-.06,1.68-.08,2.52-.04.84.03,1.68.04,2.52.04.42,0,.82.03,1.21.09.39.06.76.03,1.12-.09.3-.06.61-.1.95-.13.33-.03.67-.01,1.04.04.12.06.16.38.13.94-.03.57-.08,1.19-.13,1.85v.81ZM342.04,100.82c.24,0,.46.02.67.04.21.03.46.04.77.04.54.06,1.08.08,1.62.04.54-.03.99-.07,1.35-.13.78-.12,1.51-.18,2.21-.18h2.03c.42,0,.69-.03.81-.09.18-.06.33-.1.45-.13.12-.03.27-.01.45.04,1.2.18,2.34.27,3.42.27s2.13-.03,3.15-.09c.3,0,.73-.01,1.31-.04.57-.03.94-.01,1.12.04.18,0,.36.03.54.09.18.06.36.09.54.09.78,0,1.39.02,1.84.04.45.03.88.04,1.3.04,1.14.06,2.28.11,3.42.13,1.14.03,2.31.04,3.51.04h2.97c.96,0,1.95.09,2.97.27h.72c.96-.06,1.98,0,3.06.18h.58c.21,0,.4-.03.58-.09.12-.06.42-.04.9.04.48.09.78.2.9.31.12.66.18,1.32.18,1.98v1.98c.06.36.08.74.04,1.12-.03.39-.04.8-.04,1.22v3.01c0,.93-.03,1.93-.09,3.01l.09,1.98c0,1.08-.03,2.16-.09,3.24-.06,1.08-.06,2.16,0,3.24,0,.54.03,1.08.09,1.62.06.54.09,1.08.09,1.62-.12.3-.42.51-.9.63-.3.06-.71.11-1.21.14-.51.03-.92.04-1.21.04-.96.12-1.89.17-2.79.13-.9-.03-1.8-.04-2.7-.04-1.2-.06-2.43-.08-3.69-.04-1.26.03-2.49.04-3.69.04h-18.09c-1.26.06-2.52.08-3.78.04-1.26-.03-2.52-.04-3.78-.04-.6,0-1.02-.03-1.26-.09-.3-.06-.56-.14-.77-.23-.21-.09-.38-.28-.49-.58.12-.3.16-.78.13-1.44-.03-.66-.04-1.17-.04-1.53.06-.84.1-1.51.13-2.03.03-.51.04-1.18.04-2.02.06-.24.07-.48.04-.72-.03-.24-.04-.51-.04-.81-.06-.48-.09-.79-.09-.95v-.94c.06-.36.1-.66.13-.9.03-.24.01-.54-.04-.9-.06-.84-.08-1.41-.04-1.71.03-.3.04-.87.04-1.71,0-1.14.04-2.02.13-2.65.09-.63.17-1.51.23-2.66,0-.3-.02-.63-.04-.99-.03-.36-.02-.69.04-.99,0-.24.03-.55.09-.94.06-.39.12-.73.18-1.04v-.09ZM353.74,117.92c.18,0,.33.02.45.04.12.03.24.04.36.04.42.06.9.09,1.44.09h1.89c1.02-.06,1.83-.07,2.43-.04.6.03,1.41-.01,2.43-.13.66.12,1.49.13,2.47.04.99-.09,1.81-.07,2.48.04.42.06.87.08,1.35.04.48-.03.96.02,1.44.14.42.06.87.08,1.35.04.48-.03.96-.1,1.44-.23,0-.36-.02-.69-.04-.99-.03-.3-.05-.63-.05-.99.06-.3.12-.46.18-.5.06-.03.06-.37,0-1.04l-.18-2.79c0-.3.01-.63.05-.99.03-.36.01-.63-.05-.81-.12-.06-.27-.09-.45-.09-1.32-.18-2.4-.28-3.24-.32-.84-.03-1.68-.07-2.52-.13h-1.26c-.42,0-.84.03-1.26.09h-1.53c-.66,0-1.48.02-2.47.04-.99.03-1.82.08-2.47.13-.54,0-1.08.04-1.62.14-.54.09-1.05.08-1.53-.04h-.76c-.33,0-.47.06-.41.18,0,.06-.02.12-.04.18-.03.06-.04.15-.04.27v1.08c0,.3-.02.54-.04.72-.03.18-.04.42-.04.72.06.54.1.87.13.99.03.12.01.45-.04.99,0,.48-.02.76-.04.85-.03.09-.02.35.04.77,0,.18.01.39.04.63.03.24.07.51.13.81Z"/>
    <path class="cls-3" d="M436.63,113.33c0-.3.03-.82.09-1.58.06-.75.06-1.24,0-1.49-.06-.3-.03-.58.09-.85.12-.27.3-.41.54-.41.18,0,.61.02,1.3.04.69.03,1.42-.01,2.21-.13.36-.06.88-.07,1.58-.04.69.03,1.4.06,2.12.09.72.03,1.44.06,2.16.09.72.03,1.32.02,1.8-.04.3-.06.48.11.54.5.06.39.06.67,0,.86-.18.72-.27,1.71-.27,2.97l.09.9v.45c0,.6.06,1.08.18,1.44,0,.18-.03.42-.09.72-.06.3-.09.69-.09,1.17v6.48c-.06.3-.08.89-.05,1.75.03.87.05,1.46.05,1.75,0,.78.04,1.53.13,2.25s.07,1.47-.04,2.25c-.12.66-.18,1.3-.18,1.93s.06,1.28.18,1.94c.06.12.09.26.09.41v.4c-.18.54-.3,1.16-.36,1.85-.06.69-.15,1.28-.27,1.75,0,.06-.09.09-.27.09-.24.06-.72.13-1.44.22-.72.09-1.32.08-1.8-.04-.72-.12-1.43-.19-2.11-.22-.69-.03-1.4-.08-2.12-.13h-4.5c-.54.06-1.08.08-1.62.04s-1.05-.04-1.53-.04c-.6.06-.9.3-.9.72v1.98c0,.48.03,1.08.09,1.8,0,.48-.02.93-.04,1.35-.03.42-.04.96-.04,1.62,0,.12.1.21.31.27.21.06.43.09.68.09.54-.06,1.06-.07,1.57-.04.51.03,1.09.08,1.75.14h.63c.24.12.58.12,1.03,0,.45-.12.86-.18,1.22-.18h1.67c.75,0,1.69.06,2.83.18,1.38.06,2.76.06,4.14,0,1.08-.06,2.01-.06,2.79,0,.3.06.76.03,1.39-.09.63-.12,1.04-.18,1.22-.18.12.12.18.27.18.45v.45c0,.12-.02.27-.04.45-.03.18-.04.36-.04.54.06.48.1,1.09.13,1.84.03.75.01,1.34-.04,1.75-.06.36-.04.69.04.99.09.3.07.51-.04.63-.06.12-.2.2-.41.22-.21.03-.41.04-.58.04-.3,0-.74-.01-1.3-.04-.57-.03-1.01-.01-1.31.04-1.14.12-2.43.18-3.87.18s-2.7-.06-3.78-.18c-.6-.06-1.4-.07-2.38-.04-.99.03-2.27-.01-3.83-.13h-.18c-.54.12-1.08.15-1.62.09-.54-.06-1.08-.06-1.62,0l-2.34.18c-.12,0-.26.02-.41.05-.15.03-.32.01-.5-.05h-1.62c-.54,0-1.08-.03-1.62-.09-.48,0-.81.03-.99.09-.18.06-.39.03-.63-.09-.24.06-.45.14-.63.23-.18.09-.36.11-.54.04-.66-.06-1.3-.09-1.93-.09h-4c-.9,0-1.8.01-2.7.04-.9.03-1.83-.01-2.79-.14l-5.13-.18c-.84,0-1.71.02-2.61.04-.9.03-1.86.04-2.88.04-.36,0-.57-.15-.63-.45,0-.12.01-.25.04-.4.03-.15.04-.37.04-.67s-.03-.64-.09-1.04c-.06-.39-.09-.79-.09-1.21,0-.24.01-.51.04-.81.03-.3.04-.54.04-.72-.06-.24-.11-.48-.13-.72-.03-.24.01-.42.13-.54.12-.12.46-.19,1.04-.23.57-.03,1,.02,1.3.13.3.12.82.15,1.58.09.75-.06,1.27-.09,1.58-.09.48,0,1.02-.01,1.62-.04.6-.03,1.11-.04,1.53-.04.84,0,1.54.02,2.12.04.57.03,1.18.02,1.84-.04.24,0,.52-.03.86-.09.33-.06.67-.09,1.04-.09l.72.09c.42,0,.84-.01,1.26-.04.42-.03.84-.01,1.26.04.3,0,.64-.01,1.04-.04.39-.03.73-.04,1.04-.04h1.8l.18-.18v-.9c-.06-.84-.06-1.59,0-2.25,0-.12.01-.48.04-1.08.03-.6.04-1.08.04-1.44v-1.44c-.06-.18-.11-.33-.13-.45-.03-.12-.14-.24-.32-.36-1.74-.06-3.36-.06-4.86,0h-.09c-.66-.06-1.26-.12-1.8-.18-.54-.06-1.14-.06-1.8,0-.3,0-.63-.01-.99-.04-.36-.03-.72-.01-1.08.04l-3.78.36c-.48.06-.83.06-1.03,0-.21-.06-.56-.24-1.04-.54-.18-.24-.27-.69-.27-1.35,0-.84-.02-1.71-.04-2.61-.03-.9-.08-1.8-.13-2.7v-1.93c0-.63-.03-1.27-.09-1.94v-2.12c0-.69.03-1.36.09-2.02,0-.6.01-1.17.04-1.71.03-.54.04-.99.04-1.35,0-.54-.02-1.26-.04-2.16-.03-.9-.04-1.65-.04-2.25l-.09-8.1c0-.18.03-.36.09-.54.06-.18.12-.36.18-.54.6-.24,1.02-.33,1.26-.27.3,0,.66.04,1.08.13s.93.08,1.53-.04c.36,0,.72-.01,1.08-.04.36-.03.72-.07,1.08-.13.24,0,.58-.01,1.04-.04s.9-.05,1.35-.05.87.02,1.26.05c.39.03.68.04.86.04.3,0,.63.03.99.09.36.06.63.18.81.36,0,.24-.03.51-.09.81v1.39c0,.45-.03.92-.09,1.4-.12.48-.15.96-.09,1.44.06.48.12.96.18,1.44,0,.18.01.41.04.67.03.27.01.47-.04.58-.12.42-.17.75-.13.99.03.24.04.54.04.9,0,.18.09.27.27.27s.37-.01.58-.04c.21-.03.41-.04.58-.04h2.34c.12,0,.25-.01.4-.04.15-.03.32-.01.5.04.6,0,1.26.02,1.98.04.72.03,1.41.08,2.07.13.18,0,.36-.01.54-.04.18-.03.36-.04.54-.04.48-.12.96-.12,1.44,0h3.83c.57,0,1.12.06,1.67.18.42.06.69.08.81.04.12-.03.42-.01.9.04.36,0,.57-.03.63-.09v-.72c0-.24.01-.57.04-.99.03-.42.04-.96.04-1.62s-.03-1.5-.09-2.52ZM417.82,127.73v2.56c0,.27.03.67.09,1.21.06.12.08.26.05.41-.03.15-.05.29-.05.41.66.12,1.25.15,1.76.09.51-.06,1.06-.09,1.67-.09.24,0,1.23.02,2.97.04,1.74.03,3.72.02,5.94-.04,1.02-.06,2.1-.01,3.24.13,1.14.15,2.13.22,2.97.22.12-.12.18-.21.18-.27,0-.42-.02-1.12-.04-2.12-.03-.99-.04-1.72-.04-2.21v-1.98c-.84,0-1.73-.01-2.66-.04-.93-.03-1.82-.1-2.66-.23h-.36c-.3.06-.6.09-.9.09h-3.24c-.78,0-1.56.03-2.34.09h-4.59c-.18,0-.39.02-.63.05-.24.03-.45.04-.63.04-.36,0-.63-.03-.81-.09,0,.3.01.59.04.86.03.27.04.56.04.86Z"/>
    <path class="cls-3" d="M495.94,144.11c-.18.72-.27,1.5-.27,2.34-.06.48-.08.85-.04,1.12.03.27.07.56.13.85h.09c.3.06.5.11.58.14.09.03.25.01.5-.05.54-.12,1.17-.15,1.89-.09.72.06,1.35.06,1.89,0h2.34c.12,0,.25-.01.41-.04.15-.03.32-.01.5.04.6,0,1.18.02,1.75.04.57.03,1.18.08,1.84.14.18,0,.36-.01.54-.04.18-.03.36-.05.54-.05.6-.12,1.05-.15,1.35-.09,1.02.12,2.04.17,3.06.14,1.02-.03,2.04-.01,3.06.04.3,0,.57.01.81.04.24.03.51.08.81.13v6.03c-.18.18-.45.39-.81.63-1.02.06-2.03.09-3.01.09h-3.02c-1.5.06-3,.09-4.5.09h-4.59c-.3,0-.54.03-.72.09-.54.12-1.07.17-1.58.14-.51-.03-1.04-.08-1.58-.14-.48-.12-.96-.12-1.44,0-.96.06-1.98.06-3.06,0-1.26-.12-2.46-.09-3.6.09h-1.8l-4.14.18c-.42,0-.81-.01-1.17-.04s-.72-.04-1.08-.04c-.84,0-1.7.01-2.56.04-.87.03-1.76.02-2.66-.04h-1.08c-.36,0-.72-.03-1.08-.09-1.26,0-2.51-.01-3.74-.04-1.23-.03-2.47-.07-3.73-.13-.36,0-.71.03-1.04.09-.33.06-.67.15-1.04.27-.12-.36-.18-.6-.18-.72,0-.42.01-.82.04-1.21.03-.39.04-.82.04-1.3v-2.43c0-.3.01-.55.04-.77.03-.21.04-.46.04-.76.18-.06.34-.1.5-.13.15-.03.32-.04.5-.04.66-.06,1.24-.08,1.75-.04.51.03,1.09.01,1.75-.05.6,0,1.18.02,1.75.05.57.03,1.18.04,1.84.04.84,0,1.68-.01,2.52-.04.84-.03,1.68-.08,2.52-.14h1.17c.78.12,1.54.18,2.29.18s1.54-.03,2.38-.09c.3,0,.57.06.81.18.24.12.51.15.81.09.3-.06.75-.09,1.35-.09.12-.54.18-1.05.18-1.53v-1.08c0-.3-.03-.6-.09-.9-.06-.3-.09-.6-.09-.9l-.54-.18c-.96-.06-2-.18-3.1-.36-1.11-.18-2.09-.51-2.93-.99-.72-.36-1.44-.76-2.16-1.21-.72-.45-1.41-.85-2.07-1.21l-.54-.45c-.54-.54-.98-.97-1.3-1.3-.33-.33-.58-.66-.77-.99-.18-.33-.35-.69-.5-1.08-.15-.39-.31-.95-.49-1.67,0-.12-.02-.21-.05-.27-.03-.06-.04-.15-.04-.27-.24-.84-.27-1.56-.09-2.16l.81-4.86c.12-.3.21-.62.27-.95.06-.33.24-.64.54-.95.48-.42.91-.84,1.3-1.26.39-.42.86-.78,1.4-1.08l1.35-.72c.9-.6,1.83-1.08,2.79-1.44.96-.36,1.95-.69,2.97-.99.6-.18,1.26-.27,1.98-.27.96-.12,1.92-.19,2.88-.22.96-.03,1.95-.08,2.97-.14h.63c.48.12.9.17,1.26.14.36-.03.72-.08,1.08-.14.96-.12,1.9-.1,2.83.05.93.15,1.87.29,2.83.4.36,0,.66.06.9.18.9.42,1.77.87,2.61,1.35.84.48,1.68,1.05,2.52,1.71,1.38,1.14,2.37,2.52,2.97,4.14.12.12.18.27.18.45s.03.33.09.45c.12.84.23,1.73.32,2.66.09.93.1,1.88.04,2.83-.06,1.38-.54,2.61-1.44,3.69-.3.48-.66.9-1.08,1.26-1.74,2.4-4.05,3.87-6.93,4.41l-1.08.45c-.9.3-1.74.45-2.52.45-.24,0-.45.12-.63.36ZM507.01,109.46c.66-.06,1.32-.07,1.98-.04.66.03,1.32.04,1.98.04.48,0,1.08.15,1.8.45v4.46c0,.51-.03.89-.09,1.12-.3.06-.65.04-1.03-.04-.39-.09-.74-.1-1.04-.04-.12,0-.35.03-.68.09-.33.06-.55.09-.67.09-.36.06-.81.09-1.35.09s-.93-.03-1.17-.09c-.66-.12-1.61-.19-2.83-.22-1.23-.03-2.36.01-3.37.13-.96.12-2.01.2-3.15.22-1.14.03-2.19-.01-3.15-.13-.54-.06-1.1-.09-1.67-.09s-1.01.03-1.31.09c-.48.12-.99.13-1.53.04s-1.14-.07-1.8.04c-.3.06-.63.09-.99.09h-1.08c-.72,0-1.43-.01-2.12-.04-.69-.03-1.37-.01-2.03.04-1.08-.12-2.15-.15-3.19-.09-1.05.06-2.09.09-3.11.09-.24,0-.45-.01-.63-.04-.18-.03-.36-.04-.54-.04h-.95c-.33,0-.67.03-1.03.09-.66.12-1.11.18-1.35.18s-.75-.12-1.53-.36c0-.12-.01-.25-.04-.41-.03-.15-.04-.28-.04-.41v-4.23c-.12-.42-.12-.75,0-.99.12-.24.42-.36.9-.36.84-.12,1.74-.15,2.7-.09.96.06,2.04.12,3.24.18.24,0,.6-.01,1.08-.04.48-.03.97-.06,1.49-.09.51-.03,1-.06,1.49-.09.48-.03.87-.04,1.17-.04.66.06,1.33.08,2.02.04.69-.03,1.18-.01,1.49.04.12,0,.19-.1.22-.31.03-.21.01-.41-.04-.58-.06-.12-.08-.24-.04-.36.03-.12.04-.3.04-.54,0-.42-.02-.72-.04-.9-.03-.18-.04-.48-.04-.9s.06-.66.18-.72c.12-.06.41-.08.86-.04s.91.04,1.39.04h1.71c.66.12,1.27.2,1.85.22.57.03,1.3.02,2.21-.04.18-.06.33-.09.45-.09.54.12.91.21,1.12.27.21.06.37.09.5.09.24,0,.36.09.36.27,0,.12-.02.38-.04.76-.03.39-.02.8.04,1.22.06.48.1.75.13.81.03.06.04.33.04.81h.77c.33,0,.67.02,1.03.04.36.03.68.05.95.05h.58c.72.12,1.54.13,2.48.04.93-.09,1.57-.1,1.93-.04l3.51.27ZM488.56,130.79c-.12.24-.18.51-.18.81,0,.66.27,1.11.81,1.35.36.24.72.36,1.08.36,1.08.06,2.19.06,3.33,0,.42-.12.72-.33.9-.63.24-.3.34-.63.32-.99-.03-.36-.2-.63-.5-.81-.36-.24-.69-.42-.99-.54-.84-.18-1.64-.25-2.38-.22-.75.03-1.55.26-2.39.67Z"/>
    <path class="cls-3" d="M557.23,104.24c0,.24-.08.6-.22,1.08-.15.48-.29.9-.41,1.26-.06.18-.15.5-.27.95-.12.45-.27.93-.45,1.44-.18.51-.36,1.02-.54,1.53-.18.51-.33.95-.45,1.3-.18.3-.42.8-.72,1.49-.3.69-.63,1.44-.99,2.25-.36.81-.72,1.58-1.08,2.29-.36.72-.66,1.26-.9,1.62-.06.06-.11.21-.13.45-.03.24.01.42.13.54.72,1.08,1.42,2.17,2.12,3.28.69,1.11,1.12,1.82,1.3,2.12.12.3.36.69.72,1.17.36.48.63.93.81,1.35l1.26,2.79c.06.18-.02.39-.22.63-.21.24-.32.42-.32.54-.06.18-.13.33-.22.45-.09.12-.2.42-.32.9-.3.54-.63,1.07-.99,1.58-.36.51-.69.98-.99,1.39-.24.3-.6.58-1.08.86-.48.27-.9.56-1.26.85-.12-.12-.24-.27-.36-.45-.12-.18-.21-.33-.27-.45-.3-.72-.68-1.38-1.12-1.98-.45-.6-1.01-1.23-1.67-1.89l-1.35-2.43c-.48-.48-.83-.9-1.04-1.26-.21-.36-.44-.63-.67-.81-.18.12-.36.29-.54.5-.18.21-.33.41-.45.58-.54.66-1.05,1.37-1.53,2.12-.48.75-.93,1.46-1.35,2.11-1.02,1.38-1.91,2.49-2.65,3.33-.75.84-1.4,1.71-1.94,2.61-.12.06-.27.06-.45,0-.18-.06-.3-.12-.36-.18-.12-.12-.42-.28-.9-.5-.48-.21-.81-.37-.99-.5-.42-.78-.87-1.4-1.35-1.84-.48-.45-1.08-.95-1.8-1.49-.12-.12-.26-.28-.41-.5-.15-.21-.26-.37-.32-.5-.18-.3-.31-.51-.4-.63-.09-.12-.14-.27-.14-.45.66-.9,1.38-1.89,2.16-2.97.78-1.08,1.41-1.92,1.89-2.52.66-.78,1.29-1.65,1.89-2.61.6-.96,1.23-1.98,1.89-3.06.42-.48.9-1.12,1.44-1.93s1.02-1.72,1.44-2.75c.42-.66.96-1.69,1.62-3.1.66-1.41,1.23-2.68,1.71-3.83.36-.72.78-1.49,1.26-2.29.48-.81.81-1.54.99-2.21.24-.72.45-1.29.63-1.71.18-.42.33-.81.45-1.17.24-.48.48-.75.72-.81h.5c.27,0,.57.02.9.04.33.03.63.04.9.04h.58c.54-.06,1.26-.06,2.16,0,.3,0,.73-.04,1.3-.13.57-.09,1-.07,1.3.04.3.12.62.17.95.13.33-.03.61.02.85.14.06.12-.03.51-.27,1.17ZM535.54,142.4c1.44.06,2.61.03,3.51-.09.9-.12,1.86-.15,2.88-.09.6.06,1.27.11,2.02.14.75.03,1.45.04,2.12.04.12.12.21.36.27.72.06.36.06.69,0,.99-.06.24-.06.71,0,1.39.06.69.09,1.19.09,1.49v1.98c0,.12-.03.3-.09.54-.06.24-.12.72-.18,1.44v.76c0,.39-.02.8-.04,1.21-.03.42-.04.83-.04,1.21v.68c0,.84.03,1.77.09,2.79.06,1.02.03,1.95-.09,2.79.12.12.39.15.81.09.42-.06.75-.06.99,0,.3.06.75.09,1.35.09,1.2.06,2.31.04,3.33-.04,1.02-.09,2.13-.13,3.33-.13h7.29c.9.06,1.78.07,2.65.04.87-.03,1.75.04,2.66.22.3.06.58.07.85.04.27-.03.55-.08.86-.13.36-.12.79-.2,1.3-.22.51-.03,1,.01,1.49.13,1.02.12,2.1.16,3.24.13,1.14-.03,2.22-.08,3.24-.13.12.12.17.27.14.45-.03.18-.04.42-.04.72.12,1.02.16,2.01.13,2.97-.03.96-.11,2.13-.23,3.51-.12.42-.39.6-.81.54-1.02-.12-2.07-.17-3.15-.13-1.08.03-2.16.07-3.24.13h-4.86c-1.62,0-3.27.03-4.95.09h-.27c-2.1.3-4.2.42-6.3.36-2.1-.06-4.2-.12-6.3-.18h-3.28c-1.23,0-2.3-.09-3.2-.27-.36-.06-.74-.06-1.12,0-.39.06-.77.09-1.12.09-.66.06-1.28.09-1.84.09h-1.85c-.36,0-.63-.03-.81-.09-.42,0-.69-.24-.81-.72-.12-.48-.17-.98-.13-1.48.03-.51.04-1.04.04-1.58v-6.98c0-.87-.03-1.42-.09-1.67-.18-1.02-.27-2.11-.27-3.28s.06-2.3.18-3.38c0-.24.01-.41.04-.5.03-.09.04-.17.04-.23v-.72c.06-.84.07-1.69.04-2.57-.03-.87-.08-1.54-.13-2.02v-.67c0-.27.09-.46.27-.58ZM568.75,121.88c-.06.42-.03,1.08.09,1.98.12.9.12,1.92,0,3.06-.12.84-.18,1.84-.18,3.01s-.03,2.09-.09,2.75c-.06.72-.09,1.64-.09,2.75s.03,2,.09,2.66c.06.54.1,1.19.13,1.93.03.75-.04,1.28-.22,1.58-.3.12-.54.15-.72.09-.18-.06-.42-.09-.72-.09s-.67.03-1.12.09c-.45.06-.83.09-1.12.09-.48,0-.93-.01-1.35-.04-.42-.03-.66-.19-.72-.49-.06-.24-.06-.69,0-1.35.06-.66.09-1.14.09-1.44,0-1.62-.04-2.87-.13-3.74-.09-.87-.11-1.75-.04-2.66l.27-2.07v-.77c0-.45-.02-.95-.04-1.48-.03-.54-.08-1.04-.13-1.49-.06-.45-.12-.73-.18-.86-.3-.12-.49-.19-.58-.22-.09-.03-.17-.04-.22-.04h-.27c-.12,0-.36-.03-.72-.09-.66-.06-1.04-.08-1.12-.04s-.44.04-1.04.04c-.12,0-.27.02-.45.04-.18.03-.33.02-.45-.04-.06-.12-.09-.25-.09-.41v-.41c-.18-.84-.26-1.87-.23-3.1.03-1.23.04-2.29.04-3.2,0-.18.21-.27.63-.27.12,0,.37-.01.77-.04.39-.03.94.01,1.67.13.3.06.54.08.72.04.18-.03.6-.07,1.26-.13.12-.36.21-.72.27-1.08.06-.36.09-.69.09-.99l-.09-1.35v-1.35l-.09-1.26c-.06-.12-.08-.32-.05-.58.03-.27.05-.55.05-.86,0-.42.01-.78.04-1.08.03-.3.04-.69.04-1.17v-1.39c0-.57.03-1,.09-1.3-.12-.3-.17-.6-.13-.9.03-.3.04-.6.04-.9l-.09-.81c-.06-.66-.06-1.35,0-2.07.06-.72.09-1.41.09-2.07,0-.42-.02-.82-.04-1.22-.03-.39-.02-.76.04-1.12v-1.3c0-.39.03-.82.09-1.3.06-.3.06-.55,0-.77-.06-.21-.03-.37.09-.5.72-.3,1.5-.39,2.34-.27.42.12.84.17,1.26.13.42-.03.87-.01,1.35.04.6,0,.96.06,1.08.18,0,.18-.02.57-.04,1.17-.03.6-.04,1.26-.04,1.98v3.46c0,1.29.03,2.42.09,3.38,0,.48.01.96.04,1.44.03.48.07.93.13,1.35.12.66.12,1.26,0,1.8-.12,1.02-.17,2.26-.13,3.73.03,1.47-.02,3.08-.13,4.82,0,.6.04,1.26.13,1.98.09.72.1,1.23.04,1.53l-.27,2.88ZM578.29,133.31c0,.42.01.86.04,1.31s.05.85.05,1.21c.06.48.07.96.04,1.44-.03.48-.04.96-.04,1.44,0,.42-.03.86-.09,1.3-.06.45-.12.92-.18,1.4-.6.06-1.07.09-1.39.09s-.74.06-1.22.18c-.12.06-.27.08-.45.04-.18-.03-.42-.04-.72-.04h-.72c-.18,0-.42.03-.72.09-.24,0-.39-.03-.45-.09.06-.3.09-.61.09-.94v-1.04c-.06-.48-.06-.99,0-1.53.06-.54.06-1.11,0-1.71l-.09-2.34c-.06-.3-.11-.73-.13-1.3-.03-.57-.04-1.09-.04-1.58,0-.66-.02-1.32-.04-1.98-.03-.66-.08-1.32-.14-1.98,0-1.86-.01-3.58-.04-5.17s-.04-3.22-.04-4.91c-.12-1.2-.12-2.26,0-3.2.12-.93.18-1.51.18-1.75,0-.66-.02-1.29-.05-1.89-.03-.6-.08-1.2-.13-1.8-.06-.6-.06-1.71,0-3.33l-.09-2.88c0-.42-.03-1-.09-1.75-.06-.75-.09-1.27-.09-1.58-.06-.3-.09-.58-.09-.85v-.86c0-.6-.02-1.18-.05-1.75-.03-.57-.04-1.12-.04-1.67,0-.18-.01-.36-.04-.54-.03-.18-.02-.39.04-.63.06-.12.19-.18.41-.18h.5c.3,0,.57-.04.81-.13.24-.09.48-.1.72-.04.78.12,1.47.13,2.07.04s1.23-.1,1.89-.04c.24,0,.33.15.27.45-.12,1.56-.15,3.11-.09,4.64.06,1.53.12,3.1.18,4.72,0,1.2-.01,2.38-.04,3.55s-.02,2.36.04,3.56c0,1.08-.01,2.16-.04,3.24-.03,1.08-.08,2.16-.13,3.24v3.38c0,1.11.03,2.24.09,3.38,0,1.44.03,2.81.09,4.1.06,1.29.09,2.65.09,4.09,0,.24-.02.65-.05,1.21-.03.57-.04,1.04-.04,1.39Z"/>
    <path class="cls-3" d="M621.67,145.19c1.14-.06,2.1-.01,2.88.13.78.15,1.59.2,2.43.13.12.12.15.48.09,1.08-.06.6-.09,1.32-.09,2.16l.09,1.26-.18,2.79c-.24.48-.57.75-.99.81-.84.12-1.68.24-2.52.36-.84.12-1.77.12-2.79,0-.36-.12-.72-.16-1.08-.13-.36.03-.75.04-1.17.04-1.2.12-2.27.2-3.2.22-.93.03-2,.02-3.19-.04-1.26-.06-2.37-.07-3.33-.04-.96.03-2.07.08-3.33.13h-4.5c-.48,0-1.02.03-1.62.09-.6.06-1.02.15-1.26.27-.12,0-.36-.03-.72-.09-.36-.06-.69-.12-.99-.18-.3-.06-.58-.08-.86-.05-.27.03-.5-.01-.67-.13-.42-1.8-.45-3.6-.09-5.4.12-.48.18-.9.18-1.26v-.9c0-.18-.02-.37-.04-.58-.03-.21-.04-.37-.04-.5v-.99c.06-.96.07-1.9.04-2.83-.03-.93-.04-1.9-.04-2.92l-.09-3.33c-.18-1.98-.18-3.93,0-5.85.12-1.2.18-2.37.18-3.51v-8.19c0-.3-.03-.55-.09-.77-.06-.21-.06-.43,0-.67.48-.24.87-.36,1.17-.36.66.06,1.27.04,1.84-.05.57-.09,1.18-.16,1.85-.22,1.02-.06,2.01-.07,2.97-.04.96.03,1.95.02,2.97-.04.3,0,.52.04.67.13.15.09.34.08.58-.04.42-.12.87-.15,1.35-.09.48.06.9.09,1.26.09.48.06,1.04.08,1.67.04.63-.03,1.18-.1,1.67-.22.24-.06.48-.08.72-.04.24.03.51.04.81.04,1.2.12,2.23.18,3.1.18h3.11c.3,0,.6-.01.9-.04.3-.03.6-.04.9-.04.18.36.27.66.27.9l.18,1.8c0,.24-.03.58-.09,1.04-.06.45-.09.89-.09,1.3s.03.92.09,1.49c.06.57.03,1.09-.09,1.57-.12.06-.36.09-.72.09-.78.06-1.44.14-1.98.23s-1.2.13-1.98.13c-.84-.06-1.5-.09-1.98-.09s-1.14.03-1.98.09h-1.12c-.39,0-.74.06-1.04.18-.12.06-.38.11-.76.14-.39.03-.8.04-1.21.04s-.83.02-1.22.04c-.39.03-.64.04-.76.04h-.72c-.06.3-.12.57-.18.81-.06.24-.09.45-.09.63.06.72.09,1.59.09,2.61s-.03,1.98-.09,2.88c.3.06.62.11.95.13.33.03.61.02.86-.04.24,0,.61-.03,1.12-.09.51-.06.91-.03,1.21.09.42.06.84.08,1.26.04.42-.03.87-.01,1.35.05.3.06.66.06,1.08,0,.42-.06.87-.09,1.35-.09h1.62c.42,0,.87.03,1.35.09.36,0,.7-.01,1.04-.05.33-.03.67-.04,1.04-.04.06.12.1.23.13.32.03.09.04.2.04.32,0,.42-.02.83-.04,1.21-.03.39-.02.67.04.85,0,.12-.02.27-.04.45-.03.18-.04.42-.04.72,0,.24-.02.48-.04.72-.03.24-.04.51-.04.81,0,.48.06,1.02.18,1.62-.12.18-.2.29-.22.31-.03.03-.11.14-.23.32-.24.12-.39.18-.45.18-1.38.06-2.58.08-3.6.04-1.02-.03-2.19-.07-3.51-.13l-3.69-.18c-.66,0-1.14.03-1.44.09-.78.12-1.2.3-1.26.54,0,1.02.03,2.04.09,3.06.06,1.02.06,1.77,0,2.25.12.06.18.15.18.27s.06.21.18.27c.3.06.82.06,1.58,0,.75-.06,1.27-.09,1.58-.09.54,0,.96-.01,1.26-.04.3-.03.55-.04.76-.04h2.03c.42.06.82.06,1.21,0,.39-.06.82-.09,1.3-.09.42,0,.81-.01,1.17-.04.36-.03.75-.04,1.17-.04l2.43-.09ZM633.37,93.98c0-.06.01-.12.04-.18.03-.06.04-.12.04-.18.06-.24.07-.46.04-.67-.03-.21-.04-.46-.04-.77.12-.06.24-.12.36-.18.12-.06.24-.09.36-.09.42,0,.87-.01,1.35-.04.48-.03.87-.01,1.17.04.18-.06.31-.06.4,0,.09.06.25.06.5,0,.3-.06.66-.07,1.08-.04.42.03.69.08.81.13.36.12.63.27.81.45.12.12.17.36.13.72s-.08.69-.13.99c-.12.54-.18,1.11-.18,1.71s.03,1.2.09,1.8c.06.84.1,1.71.13,2.61.03.9.01,1.62-.04,2.16-.06.66-.11,1.37-.13,2.11-.03.75-.04,1.46-.04,2.12,0,1.08.03,2.18.09,3.29.06,1.11.03,2.18-.09,3.2-.06.66-.04,1.38.04,2.16.09.78.07,1.83-.04,3.15.06.78.07,1.65.04,2.61-.03.96.01,1.86.13,2.7.06.54.09,1.5.09,2.88s-.03,2.7-.09,3.96c-.12,1.74-.12,3.45,0,5.13,0,.24.06.48.18.72.06.06.06.21,0,.45-.06.24-.12.42-.18.54,0,.18.03.45.09.81.06.36.03.66-.09.9-.12.18-.13.39-.04.63.09.24.13.48.13.72l-.09,1.98v2.07c0,.66.03,1.26.09,1.8.06.54.1,1.25.13,2.11.03.87.05,1.76.05,2.66,0,.72-.05,1.55-.14,2.48-.09.93-.11,1.75-.04,2.47.06.6.06,1.35,0,2.25-.06.9-.09,1.65-.09,2.25,0,.66.01,1.29.04,1.89.03.6.01,1.23-.04,1.89,0,.6.04,1.2.13,1.8.09.6.08,1.2-.04,1.8.06.42-.24.66-.9.72l-3.42.45c-.12,0-.29.06-.5.18-.21.12-.47.12-.77,0-.42-.36-.63-.87-.63-1.53,0-.54-.03-1.07-.09-1.58-.06-.51-.09-1.04-.09-1.58,0-.36.03-.75.09-1.17.06-.42.06-.81,0-1.17-.06-.84-.08-1.71-.04-2.61.03-.9-.02-1.8-.13-2.7-.12-1.44-.15-2.93-.09-4.46.06-1.53.09-2.96.09-4.28,0-1.2.01-2.58.04-4.14.03-1.56-.02-2.85-.13-3.87-.06-.24-.09-.66-.09-1.26-.12,0-.24-.01-.36-.05-.12-.03-.24-.01-.36.05-.12.06-.36.11-.72.13-.36.03-.6.02-.72-.04-.66-.12-1.17-.18-1.53-.18s-.87.03-1.53.09c-.24-.12-.38-.25-.41-.41-.03-.15-.04-.34-.04-.58-.12-.6-.13-1.18-.04-1.75s.1-1.16.04-1.75c-.06-.66-.11-1.32-.13-1.98-.03-.66-.02-1.05.04-1.17s.28-.22.67-.32c.39-.09.73-.13,1.04-.13.18,0,.39.02.63.04.24.03.57.02.99-.04.84-.12,1.4-.13,1.67-.04s.5-.01.67-.32l-.36-3.6c-.06-.24-.08-.66-.05-1.26.03-.6.06-1.25.09-1.94.03-.69.04-1.39.04-2.11s-.03-1.38-.09-1.98c-.12-.78-.15-1.54-.09-2.29.06-.75.09-1.33.09-1.75,0-.48-.02-1-.05-1.58-.03-.57-.04-1.12-.04-1.67,0-.3.01-.69.04-1.17.03-.48.05-1.02.05-1.62.06-.66.09-1.38.09-2.16v-2.34c0-1.38.03-2.59.09-3.64.06-1.05.12-2.26.18-3.65,0-.48-.02-.94-.04-1.39-.03-.45-.08-.91-.13-1.4v-.5c0-.21-.03-.37-.09-.49Z"/>
  </g>
</svg>