<?xml version="1.0" encoding="UTF-8"?>
<svg id="Layer_1" data-name="Layer 1" xmlns="http://www.w3.org/2000/svg" version="1.1" viewBox="0 0 226.29 221.54">
  <defs>
    <style>
      .cls-1 {
        fill: #1d1d1d;
        stroke-width: 0px;
      }
    </style>
  </defs>
  <path class="cls-1" d="M117.04,24.06c-.37-.16-.46-.44-.26-.83.45-.86.92-1.75,1.4-2.69.48-.94.96-1.89,1.44-2.86.48-.97.96-1.93,1.44-2.88.48-.95.95-1.86,1.4-2.73.1-.18.18-.33.24-.42.06-.1.19-.14.38-.12l2.01.16c.19.01.32.08.37.18s.11.26.15.45c.65,1.87,1.29,3.78,1.91,5.74.62,1.96,1.29,4.02,1.99,6.18.14.42,0,.68-.39.78l-1.72.35c-.39.1-.65-.03-.76-.38-.17-.48-.33-.98-.5-1.49s-.33-1.05-.49-1.6l-4.38-.36c-.25.52-.49,1.03-.72,1.51-.24.49-.47.96-.71,1.43-.17.36-.44.45-.81.26l-1.99-.7ZM124.79,19.08l-.95-3.09c-.22.49-.44.97-.65,1.46-.22.48-.44.97-.67,1.46l2.28.18Z"/>
  <path class="cls-1" d="M130.71,25.9c-.35-.08-.49-.29-.41-.65l1.73-8.76c.05-.36.26-.49.63-.41l2.14.48c.27.06.41.21.41.46l-.2.88c.19-.23.41-.41.67-.55.26-.14.53-.24.81-.31s.55-.1.82-.09c.27,0,.51.03.74.08.43.1.81.26,1.14.48.33.23.59.5.8.81.21.32.36.67.45,1.07.1.4.14.81.13,1.24-.01.5-.06,1.03-.13,1.58-.07.56-.17,1.11-.3,1.68s-.26,1.13-.42,1.7c-.15.57-.31,1.12-.48,1.65-.06.17-.14.29-.24.36s-.23.09-.41.05l-2.02-.45c-.36-.08-.49-.29-.37-.64.32-.99.6-1.93.84-2.82.24-.89.4-1.74.48-2.53.04-.46-.05-.83-.27-1.12-.22-.29-.57-.49-1.02-.59-.49-.11-.9-.05-1.23.17s-.54.51-.63.87l-1.3,5.33c-.08.35-.29.49-.64.41l-1.72-.38Z"/>
  <path class="cls-1" d="M141.27,28.56c-.34-.11-.46-.34-.35-.68l2.56-8.54c.11-.34.33-.46.66-.35l2.09.68c.34.11.45.34.33.68l-2.94,8.41c-.11.34-.34.46-.68.35l-1.68-.55ZM145.42,18.63c-.49-.16-.85-.46-1.08-.91-.23-.45-.26-.91-.1-1.41.16-.49.46-.85.91-1.08.45-.23.92-.26,1.41-.1.49.16.85.46,1.08.91.23.45.26.92.1,1.41-.16.49-.46.85-.91,1.08s-.92.26-1.41.1Z"/>
  <path class="cls-1" d="M145.7,29.85c-.33-.15-.41-.39-.26-.72l3.57-8.18c.13-.34.37-.43.7-.27l1.99.93c.25.12.35.3.3.54l-.3.65c.13-.14.29-.25.49-.34.2-.09.41-.14.64-.17.23-.02.46-.02.7,0,.24.03.46.09.67.19.97.45,1.48,1.23,1.55,2.33.45-.31.92-.49,1.4-.54.49-.05.96.03,1.43.25.45.21.81.46,1.09.75.28.3.49.62.63.98s.21.73.2,1.14c0,.4-.05.81-.15,1.23-.13.47-.29.97-.5,1.5-.21.53-.44,1.07-.69,1.61-.25.54-.52,1.07-.8,1.58s-.55.99-.81,1.43c-.1.15-.2.25-.31.3-.11.05-.25.03-.41-.04l-1.71-.8c-.34-.16-.41-.39-.23-.7.52-.89,1-1.77,1.45-2.63.44-.86.77-1.63.98-2.31.13-.43.15-.79.07-1.1-.09-.31-.28-.53-.56-.66-.29-.14-.59-.14-.88,0s-.52.39-.66.75c-.29.78-.65,1.58-1.06,2.41-.42.83-.88,1.69-1.38,2.58-.1.15-.2.25-.31.3-.11.05-.25.04-.41-.04l-1.71-.8c-.34-.16-.41-.39-.23-.7.52-.89.99-1.76,1.4-2.58.41-.83.76-1.61,1.04-2.36.16-.43.2-.8.12-1.11-.08-.31-.3-.53-.64-.67-.36-.14-.68-.15-.96-.02s-.49.34-.65.64l-2.49,5.09c-.15.33-.39.41-.72.26l-1.6-.75Z"/>
  <path class="cls-1" d="M164.91,40.46c-.27-.18-.32-.39-.16-.63l.46-.68c-.45.22-.97.29-1.55.24-.59-.06-1.15-.27-1.68-.63-.56-.38-1.01-.83-1.36-1.36-.35-.53-.58-1.1-.68-1.72-.11-.62-.08-1.26.07-1.93.15-.67.46-1.34.91-2.01.45-.67.96-1.19,1.54-1.59.57-.39,1.16-.66,1.78-.79.61-.13,1.23-.13,1.85,0s1.21.38,1.76.77c.25.17.47.36.66.59.19.22.35.45.47.69.12.24.21.48.26.73.05.25.05.48,0,.7l.41-.61c.18-.31.43-.36.74-.15l1.82,1.23c.29.2.33.44.13.74l-5.2,7.26c-.2.3-.45.35-.75.14l-1.46-.99ZM162.75,35.51c.09.61.43,1.12,1.03,1.53.61.41,1.21.54,1.81.39.6-.15,1.12-.54,1.54-1.16s.6-1.24.53-1.85c-.07-.61-.42-1.12-1.05-1.55-.6-.4-1.2-.53-1.8-.39-.61.15-1.12.53-1.55,1.16-.43.63-.6,1.25-.51,1.87Z"/>
  <path class="cls-1" d="M168.59,43.36c-.28-.23-.3-.48-.07-.76l8.04-9.92c.23-.28.48-.3.75-.08l1.68,1.41c.28.23.29.48.05.75l-8.34,9.66c-.23.28-.49.3-.76.07l-1.35-1.13Z"/>
  <path class="cls-1" d="M177.7,51.96c-.23-.28-.2-.53.08-.76l9.04-7.62c.32-.27.63-.38.94-.32.3.06.58.23.84.5,1.99,2.08,3.11,3.97,3.36,5.68.25,1.71-.33,3.14-1.74,4.29-.57.46-1.18.76-1.82.89-.65.13-1.32.1-2-.09-.68-.19-1.37-.56-2.07-1.1s-1.37-1.26-2.02-2.15l-2.72,2.13c-.28.23-.53.2-.76-.08l-1.12-1.37ZM184.18,49.65c.33.48.67.88,1.03,1.22.36.33.71.58,1.06.75.35.16.7.23,1.04.21.34-.02.67-.16.98-.41.31-.25.51-.54.61-.87s.12-.69.04-1.06-.24-.78-.5-1.2c-.26-.42-.59-.83-1.01-1.23l-3.25,2.6Z"/>
  <path class="cls-1" d="M184.2,60.28c-.19-.3-.14-.55.16-.75l7.41-5.02c.29-.22.54-.17.74.15l1.19,1.85c.1.15.13.28.11.38-.02.1-.11.2-.26.3l-.46.29c.6.02,1.15.24,1.65.66s.94.95,1.29,1.58c.17.32.12.56-.16.75l-1.56,1c-.15.1-.29.13-.42.09s-.23-.13-.29-.27c-.15-.36-.35-.7-.6-1.02s-.54-.58-.85-.79c-.31-.21-.63-.33-.97-.38-.34-.05-.66.02-.97.21l-4.3,2.63c-.3.19-.55.14-.75-.16l-.95-1.48Z"/>
  <path class="cls-1" d="M189.51,66.62c.2-.62.53-1.2.98-1.72.46-.53,1.04-.97,1.76-1.33.72-.36,1.43-.56,2.13-.6.7-.05,1.36.04,1.98.25.62.21,1.19.55,1.69,1s.92,1,1.24,1.65c.32.65.51,1.31.56,1.98.05.68-.02,1.33-.23,1.95-.21.62-.54,1.2-1,1.73-.46.53-1.05.97-1.77,1.33-.72.36-1.43.55-2.14.6-.69.05-1.34-.04-1.95-.26s-1.16-.56-1.66-1.02c-.49-.46-.9-1.01-1.22-1.65-.32-.65-.51-1.3-.58-1.97-.06-.67,0-1.31.19-1.93ZM193.29,66.22c-.68.34-1.12.81-1.33,1.43-.21.62-.15,1.26.17,1.91.16.32.36.59.6.81.25.23.52.39.81.48s.61.13.94.11.67-.12,1.01-.29c.33-.17.61-.37.84-.62s.39-.52.49-.81.14-.6.11-.93c-.03-.33-.12-.65-.28-.98-.33-.68-.81-1.12-1.42-1.31s-1.26-.13-1.94.21Z"/>
  <path class="cls-1" d="M193.46,78.16c-.12-.34-.01-.57.33-.69l6.23-2.35-.69-1.82c-.06-.16-.06-.3,0-.42.06-.12.17-.21.32-.27l1.73-.62c.16-.06.3-.06.42,0,.12.06.21.17.27.32l.62,1.78,1.89-.7c.33-.14.56-.04.69.31l.73,2.03c.06.17.06.31,0,.41s-.17.19-.34.26l-1.94.66.63,1.8c.06.16.06.3,0,.42s-.17.21-.32.27l-1.54.55c-.16.06-.29.06-.41,0-.12-.06-.21-.17-.28-.32l-.69-1.82-6.35,2.17c-.34.12-.57.01-.69-.33l-.6-1.66Z"/>
  <path class="cls-1" d="M199.49,84.82c-.48.21-.81.58-.99,1.09-.18.51-.19,1.08-.03,1.71.13.48.28.89.47,1.24.19.35.42.66.7.94.29.31.32.58.12.8l-.71.82c-.09.1-.2.15-.32.18-.12.02-.27-.02-.43-.13-.54-.41-.99-.9-1.33-1.47-.34-.56-.61-1.25-.81-2.06-.18-.76-.23-1.48-.15-2.18.08-.69.28-1.32.61-1.9.33-.57.77-1.06,1.33-1.47s1.23-.7,2.02-.89c.78-.19,1.52-.23,2.21-.13.69.1,1.31.32,1.87.65s1.03.78,1.42,1.33c.39.55.67,1.17.84,1.87.18.75.23,1.45.14,2.1-.08.66-.28,1.24-.6,1.76s-.72.96-1.23,1.32c-.51.36-1.09.63-1.75.82-.43.11-.83.09-1.2-.07-.37-.16-.62-.5-.76-.99l-1.43-5.36ZM202.86,88.53c.46-.18.79-.52,1-1.02s.22-1.03.06-1.61c-.17-.62-.47-1.08-.9-1.36-.43-.28-.88-.39-1.38-.34l1.22,4.32Z"/>
  <path class="cls-1" d="M200.62,102.48c-.09.08-.2.13-.33.14-.13.01-.27-.04-.41-.16-.5-.44-.93-.97-1.28-1.59-.35-.62-.56-1.35-.65-2.21-.08-.81-.04-1.56.15-2.25.18-.69.48-1.29.88-1.81s.91-.94,1.52-1.26c.61-.32,1.3-.52,2.07-.6.76-.08,1.48-.02,2.15.17s1.26.49,1.78.89.93.9,1.26,1.49c.33.59.53,1.25.6,1.96.07.66.05,1.25-.06,1.79-.11.54-.27,1.02-.5,1.45-.23.43-.5.81-.81,1.13s-.65.59-1,.81c-.12.07-.23.11-.31.1s-.15-.05-.22-.14l-.96-1.71c-.15-.2-.12-.39.1-.57.28-.23.5-.55.66-.96.16-.4.22-.8.19-1.18-.04-.36-.13-.69-.29-.98-.16-.3-.36-.54-.61-.74-.25-.2-.54-.34-.86-.44-.32-.09-.66-.12-1.02-.08-.44.05-.82.17-1.14.36-.32.2-.57.43-.77.7-.2.27-.33.58-.4.91-.07.33-.09.67-.06,1,.05.49.16.89.34,1.19.18.31.41.63.7.98.12.16.19.3.2.44,0,.14-.04.26-.13.37l-.77.77Z"/>
  <path class="cls-1" d="M198.58,106.32c0-.36.19-.54.55-.53h6.66v-1.94c0-.17.05-.3.14-.39.1-.09.23-.14.4-.14l1.84.03c.17,0,.3.05.39.15.09.1.14.23.14.4l-.05,1.89h2.02c.36,0,.54.17.53.55l-.04,2.16c0,.18-.05.31-.14.38-.09.08-.23.12-.41.13l-2.05-.07-.05,1.91c0,.17-.05.3-.15.39-.1.09-.23.14-.4.14l-1.64-.03c-.17,0-.29-.05-.38-.15-.09-.1-.14-.23-.15-.4v-1.94s-6.71-.22-6.71-.22c-.36,0-.54-.19-.53-.55l.03-1.76Z"/>
  <path class="cls-1" d="M198.34,112.97c.03-.36.22-.52.58-.49l8.9.55c.36.03.52.22.49.57l-.19,2.19c-.03.36-.22.52-.58.47l-8.86-.94c-.36-.03-.52-.23-.49-.58l.15-1.76ZM208.95,114.75c.04-.51.26-.93.64-1.25.38-.32.83-.46,1.35-.42.51.04.93.26,1.25.64.32.38.46.83.42,1.35-.04.51-.26.93-.64,1.25-.38.32-.83.46-1.35.42-.52-.04-.93-.26-1.26-.64-.32-.38-.46-.83-.42-1.35Z"/>
  <path class="cls-1" d="M198.99,118.42c.54-.38,1.14-.64,1.82-.79.68-.15,1.42-.15,2.21,0,.79.15,1.48.41,2.07.8.59.38,1.07.85,1.43,1.39.37.54.62,1.15.75,1.82s.13,1.35,0,2.06c-.13.71-.38,1.35-.74,1.92s-.81,1.05-1.35,1.42c-.54.38-1.15.64-1.84.78-.69.15-1.43.15-2.21,0-.79-.15-1.48-.42-2.07-.81-.58-.38-1.04-.84-1.4-1.38s-.6-1.15-.71-1.81c-.12-.66-.12-1.35.02-2.06.13-.71.38-1.35.72-1.92.35-.58.79-1.05,1.31-1.43ZM202.25,120.37c-.74-.14-1.38-.02-1.92.35-.54.37-.88.91-1.01,1.63-.07.35-.07.69,0,1.01.06.33.18.62.36.87.18.25.41.47.69.65.28.18.61.3.98.38.37.07.71.07,1.04,0,.33-.07.62-.19.88-.36.26-.17.47-.4.65-.68.17-.28.29-.6.36-.95.14-.74.02-1.38-.35-1.91-.37-.53-.93-.86-1.67-1Z"/>
  <path class="cls-1" d="M195.73,128.55c.11-.34.34-.46.68-.34l8.55,2.58c.35.09.46.31.35.66l-.69,2.09c-.09.26-.25.38-.5.37l-.86-.28c.21.21.37.45.48.72s.19.55.23.83.04.56.01.83c-.03.27-.08.51-.15.73-.14.42-.34.78-.59,1.08-.26.3-.55.54-.89.71-.34.17-.71.29-1.11.35s-.82.06-1.24,0c-.5-.06-1.02-.16-1.56-.29-.54-.13-1.09-.28-1.64-.46s-1.1-.37-1.65-.58c-.55-.21-1.08-.42-1.59-.64-.16-.08-.28-.17-.34-.27-.06-.1-.06-.24,0-.41l.64-1.97c.12-.35.34-.46.67-.31.95.41,1.86.78,2.72,1.11.86.33,1.69.57,2.47.73.45.08.83.03,1.14-.16.31-.2.54-.51.69-.96.16-.48.14-.89-.05-1.24s-.46-.58-.81-.71l-5.18-1.82c-.34-.11-.46-.34-.35-.68l.55-1.68Z"/>
  <path class="cls-1" d="M186.19,156.2c-.2.07-.36.08-.48,0s-.21-.19-.29-.34c-.44-.93-.62-1.88-.53-2.83.09-.95.42-1.91,1.01-2.87.51-.83,1.12-1.5,1.82-2.01.71-.51,1.47-.85,2.29-1.02s1.67-.18,2.55-.01c.89.16,1.76.51,2.63,1.05s1.59,1.16,2.15,1.88.96,1.49,1.21,2.3c.24.82.3,1.65.2,2.5-.11.85-.4,1.67-.89,2.46-.33.53-.68,1-1.07,1.39-.39.39-.8.72-1.22.97s-.86.45-1.3.58-.89.21-1.34.23c-.15,0-.27-.02-.38-.1s-.18-.19-.21-.35l-.24-2.09c-.02-.15,0-.29.08-.42.07-.13.2-.21.38-.22.44-.05.87-.19,1.29-.42.42-.23.8-.62,1.15-1.18.24-.39.38-.8.42-1.24.04-.44,0-.87-.14-1.3-.14-.43-.37-.85-.7-1.25-.33-.41-.74-.76-1.24-1.07-.49-.3-.99-.5-1.49-.6-.5-.1-.98-.1-1.43-.01-.45.09-.86.26-1.24.53s-.69.6-.95,1c-.33.53-.52,1.05-.57,1.55-.05.5,0,1.01.18,1.53.12.36,0,.61-.35.78l-1.32.6Z"/>
  <path class="cls-1" d="M184.09,159.56c-.46-.25-.95-.3-1.46-.13-.52.17-.98.5-1.38,1.01-.3.39-.54.76-.7,1.12-.17.36-.28.74-.33,1.13-.08.42-.27.61-.57.58l-1.08-.07c-.13-.01-.24-.06-.33-.15-.09-.08-.15-.22-.16-.42,0-.68.12-1.33.37-1.95s.63-1.24,1.15-1.88c.49-.6,1.04-1.08,1.64-1.43.6-.35,1.23-.57,1.88-.66s1.31-.03,1.97.18c.66.2,1.31.56,1.93,1.07.62.51,1.1,1.07,1.44,1.68.34.61.54,1.24.61,1.88.07.65,0,1.29-.2,1.93-.2.64-.53,1.24-.99,1.8-.49.59-1.02,1.05-1.59,1.38-.57.33-1.16.52-1.77.59s-1.2,0-1.79-.18-1.16-.49-1.71-.9c-.35-.27-.57-.61-.67-1-.1-.4.02-.8.34-1.2l3.41-4.38ZM183.16,164.48c.43.26.9.32,1.41.18.52-.14.96-.44,1.32-.92.39-.52.57-1.03.54-1.54-.03-.51-.22-.94-.56-1.3l-2.71,3.58Z"/>
  <path class="cls-1" d="M175.57,163.78c.26-.25.52-.24.76.02l6.27,6.36c.26.25.26.5-.01.75l-1.6,1.5c-.2.19-.41.22-.61.08l-.62-.66c.08.28.11.57.08.86-.03.29-.1.57-.2.84-.1.27-.23.51-.39.73-.16.22-.32.41-.48.56-.32.3-.67.53-1.04.67s-.74.21-1.12.2c-.38,0-.76-.08-1.14-.23-.38-.14-.75-.34-1.1-.59-.41-.29-.82-.63-1.23-1-.42-.38-.82-.77-1.22-1.19-.39-.42-.78-.85-1.17-1.3s-.75-.89-1.09-1.32c-.11-.15-.16-.28-.17-.4,0-.12.06-.24.19-.36l1.51-1.42c.27-.25.52-.24.74.05.63.82,1.25,1.58,1.86,2.28.6.7,1.21,1.31,1.82,1.82.36.29.72.43,1.08.4.37-.02.72-.19,1.06-.51.37-.34.55-.71.55-1.11s-.12-.73-.37-1.01l-3.68-4.08c-.25-.26-.24-.52.02-.76l1.29-1.21Z"/>
  <path class="cls-1" d="M166.32,171.87c.29-.21.54-.18.76.11l4.07,5.27,1.54-1.19c.13-.1.27-.14.4-.12s.25.1.35.23l1.1,1.47c.1.13.14.27.12.4s-.1.25-.23.35l-1.53,1.12,1.22,1.6c.23.27.2.52-.1.75l-1.73,1.29c-.14.11-.27.15-.39.12s-.23-.11-.35-.24l-1.2-1.67-1.54,1.13c-.13.1-.27.14-.4.12s-.25-.1-.35-.23l-.98-1.31c-.1-.13-.14-.27-.12-.4.02-.13.1-.25.23-.36l1.54-1.19-3.93-5.44c-.21-.29-.18-.54.11-.76l1.41-1.06Z"/>
  <path class="cls-1" d="M161.7,179.6c-.35-.4-.79-.61-1.33-.63-.54-.02-1.09.14-1.64.48-.42.26-.77.53-1.04.81-.28.28-.51.6-.7.94-.22.36-.46.48-.74.35l-.99-.44c-.12-.06-.2-.14-.26-.25-.06-.11-.06-.26,0-.45.24-.64.57-1.21,1.01-1.7s1.02-.95,1.73-1.37c.67-.4,1.35-.66,2.04-.78s1.35-.12,1.99.03c.64.14,1.24.43,1.79.84.55.42,1.03.98,1.44,1.67.41.69.67,1.38.77,2.07.11.69.08,1.35-.08,1.98-.16.63-.44,1.21-.85,1.75-.41.53-.93.98-1.55,1.35-.66.39-1.32.64-1.97.75-.65.11-1.27.09-1.86-.05-.59-.15-1.13-.41-1.62-.79-.49-.38-.93-.85-1.29-1.43-.24-.38-.33-.77-.28-1.17.05-.4.29-.74.73-1.01l4.71-2.94ZM159.14,183.9c.31.39.73.61,1.26.66.53.05,1.05-.09,1.55-.41.55-.35.89-.77,1.04-1.26.14-.49.12-.96-.08-1.41l-3.77,2.43Z"/>
  <path class="cls-1" d="M152.25,180.57c.33-.15.57-.05.71.27l3.83,8.09c.17.32.08.55-.26.71l-2.01.89c-.16.07-.29.09-.39.05-.1-.04-.18-.14-.25-.3l-.22-.49c-.11.59-.41,1.1-.9,1.53s-1.08.78-1.76,1.03c-.34.12-.58.03-.71-.27l-.75-1.69c-.07-.17-.08-.31-.02-.43.06-.12.16-.21.31-.25.38-.09.75-.24,1.1-.44s.66-.44.91-.72c.25-.28.43-.58.52-.9.1-.33.08-.66-.05-.99l-1.95-4.65c-.15-.33-.05-.57.27-.71l1.61-.72Z"/>
  <path class="cls-1" d="M133.86,187.11c.23-.28.48-.47.75-.57s.53-.14.77-.09c.24.05.45.15.62.32s.27.39.28.67l.2,3.79,2.96,1.22c.38.16.67.36.85.61.18.25.27.5.27.75s-.08.5-.25.72c-.17.23-.41.4-.73.52l-3.14,1.2-.78,3.54c-.06.32-.18.57-.36.76s-.38.31-.59.36c-.22.05-.45.02-.69-.09s-.47-.29-.68-.56l-2.11-2.66-3.32.66c-.31.06-.58.03-.81-.08-.23-.11-.41-.27-.53-.49-.12-.21-.17-.46-.15-.73.02-.27.14-.54.34-.8l1.98-2.5-1.86-3.06c-.14-.23-.2-.47-.17-.72.03-.25.12-.46.28-.64.16-.18.39-.3.68-.38s.63-.05,1.02.07l2.88.89,2.29-2.74Z"/>
  <path class="cls-1" d="M116.78,189.38c.37.16.46.44.27.83-.45.86-.91,1.76-1.38,2.7-.48.94-.95,1.9-1.42,2.87-.47.97-.95,1.93-1.42,2.88-.48.95-.94,1.86-1.39,2.74-.1.19-.18.33-.24.42-.06.1-.19.14-.38.13l-2.01-.14c-.19-.01-.32-.07-.38-.18-.06-.11-.11-.26-.16-.45-.66-1.86-1.31-3.77-1.95-5.73s-1.31-4.02-2.03-6.17c-.14-.42-.01-.68.38-.79l1.72-.37c.39-.1.65.02.77.38.17.48.34.98.51,1.49.17.51.34,1.04.5,1.6l4.38.33c.24-.52.48-1.03.71-1.52.23-.49.47-.96.71-1.43.17-.36.44-.45.81-.27l1.99.68ZM109.06,194.41l.97,3.08c.22-.49.43-.98.65-1.46s.44-.97.66-1.46l-2.28-.16Z"/>
  <path class="cls-1" d="M103.1,187.62c.35.08.49.29.41.64l-1.68,8.77c-.05.36-.26.5-.62.42l-2.15-.46c-.27-.06-.41-.21-.42-.46l.19-.88c-.19.23-.41.42-.66.56-.26.14-.53.25-.8.31-.28.07-.55.1-.82.1-.27,0-.52-.03-.74-.08-.43-.09-.81-.25-1.14-.48-.33-.22-.59-.49-.8-.81-.21-.32-.36-.67-.46-1.07-.1-.4-.14-.81-.14-1.24.01-.5.05-1.03.12-1.58s.17-1.11.29-1.68c.12-.56.26-1.13.4-1.7.15-.57.3-1.12.47-1.65.06-.17.14-.29.24-.36.1-.07.23-.09.41-.05l2.02.44c.36.08.49.29.38.63-.31.99-.59,1.93-.82,2.82-.24.89-.39,1.74-.47,2.53-.04.46.06.83.28,1.12.23.29.57.48,1.03.58.49.11.9.05,1.23-.18.32-.22.53-.52.62-.88l1.27-5.34c.08-.35.29-.49.64-.41l1.72.37Z"/>
  <path class="cls-1" d="M88.46,195c.49.16.85.46,1.08.9.23.44.27.91.11,1.4-.16.49-.46.85-.9,1.08-.44.23-.91.27-1.4.11s-.85-.46-1.08-.9c-.23-.45-.27-.91-.11-1.41s.46-.85.9-1.08c.45-.23.91-.27,1.4-.11ZM92.54,185.04c.34.11.46.34.35.68l-2.5,8.55c-.11.34-.33.46-.66.36l-2.09-.67c-.34-.11-.45-.33-.33-.67l2.88-8.43c.11-.34.34-.46.68-.35l1.68.54Z"/>
  <path class="cls-1" d="M88.1,183.77c.33.15.42.39.27.72l-3.52,8.21c-.13.34-.36.43-.7.27l-2-.92c-.25-.11-.35-.29-.31-.54l.3-.65c-.13.14-.29.25-.49.34-.2.09-.41.14-.64.17-.23.03-.46.03-.7,0-.24-.03-.46-.09-.67-.19-.97-.44-1.49-1.22-1.57-2.32-.45.31-.91.49-1.4.55-.49.05-.96-.03-1.43-.24-.45-.2-.81-.45-1.09-.75s-.49-.62-.63-.97c-.14-.36-.21-.73-.21-1.14,0-.4.05-.81.15-1.23.12-.47.29-.97.49-1.51.21-.53.43-1.07.68-1.61s.51-1.07.79-1.59c.28-.52.54-1,.8-1.44.1-.15.2-.25.31-.3.11-.05.24-.04.41.04l1.72.79c.34.15.42.39.23.7-.52.9-.99,1.78-1.43,2.64s-.76,1.64-.96,2.32c-.13.43-.15.8-.06,1.1.09.31.28.52.56.65.29.13.59.13.89,0s.51-.39.65-.75c.29-.78.64-1.58,1.05-2.42.41-.84.86-1.7,1.37-2.59.1-.15.2-.26.31-.3.11-.05.24-.04.41.04l1.72.79c.34.16.42.39.23.7-.52.9-.98,1.76-1.39,2.59-.41.83-.75,1.62-1.02,2.36-.16.43-.19.8-.11,1.11s.3.53.65.66c.36.14.68.14.96.01.28-.13.49-.35.64-.65l2.46-5.11c.15-.33.39-.42.72-.27l1.6.73Z"/>
  <path class="cls-1" d="M68.81,173.29c.27.18.32.39.16.63l-.46.69c.45-.22.97-.3,1.55-.25.59.05,1.15.26,1.69.62.56.38,1.02.83,1.37,1.35.35.53.59,1.1.69,1.71s.09,1.26-.06,1.93c-.15.67-.45,1.34-.89,2.01-.45.67-.96,1.2-1.53,1.6-.57.4-1.16.66-1.77.8-.61.13-1.23.14-1.85.02-.62-.12-1.21-.38-1.77-.76-.25-.17-.47-.36-.66-.58-.19-.22-.35-.45-.47-.69-.12-.23-.21-.48-.26-.73-.05-.25-.05-.48,0-.7l-.41.61c-.18.31-.42.37-.73.16l-1.82-1.22c-.29-.19-.33-.44-.13-.74l5.15-7.3c.2-.3.45-.35.75-.15l1.47.98ZM71.01,178.23c-.09-.61-.44-1.12-1.04-1.52-.61-.41-1.21-.54-1.81-.38s-1.11.54-1.53,1.17c-.42.63-.59,1.25-.52,1.85.08.61.43,1.12,1.06,1.54.6.4,1.2.53,1.81.38.61-.15,1.12-.54,1.54-1.17.42-.63.59-1.25.5-1.88Z"/>
  <path class="cls-1" d="M59.43,165.47c.25.26.24.52-.03.76l-8.51,8.21c-.3.3-.6.42-.91.38-.31-.04-.6-.19-.87-.44-2.12-1.94-3.37-3.75-3.73-5.44-.37-1.68.12-3.15,1.45-4.39.54-.5,1.12-.84,1.76-1.01.64-.18,1.31-.19,2-.04.7.15,1.41.47,2.14.96.73.49,1.45,1.16,2.16,2.01l2.58-2.31c.26-.25.52-.24.76.03l1.2,1.29ZM53.12,168.21c-.36-.45-.73-.84-1.11-1.15s-.75-.54-1.11-.67c-.36-.14-.71-.19-1.05-.14-.34.05-.66.21-.95.48s-.47.57-.55.91c-.08.34-.07.69.03,1.06.1.37.29.76.58,1.16.28.4.65.79,1.09,1.16l3.06-2.81Z"/>
  <path class="cls-1" d="M52.4,157.61c.21.29.18.54-.11.76l-7.05,5.51c-.27.23-.52.2-.74-.1l-1.31-1.76c-.11-.14-.15-.27-.14-.37.01-.1.09-.21.24-.31l.43-.32c-.6.02-1.16-.16-1.69-.55s-1-.88-1.39-1.49c-.2-.3-.16-.56.11-.76l1.49-1.11c.14-.11.28-.15.42-.12.13.03.24.11.31.25.17.35.4.68.67.98.28.3.58.55.9.73.32.18.66.29,1,.31s.66-.07.95-.27l4.11-2.92c.29-.21.54-.18.76.11l1.05,1.42Z"/>
  <path class="cls-1" d="M46.65,151.62c-.16.63-.45,1.23-.87,1.79-.42.56-.98,1.04-1.67,1.44s-1.39.65-2.09.75c-.7.09-1.36.05-2-.12s-1.22-.47-1.75-.88c-.53-.42-.98-.94-1.35-1.56-.36-.62-.59-1.27-.69-1.94-.1-.67-.07-1.33.1-1.96.16-.64.46-1.23.88-1.79.42-.56.98-1.04,1.68-1.45.69-.41,1.39-.65,2.09-.74.68-.09,1.34-.05,1.96.13.62.18,1.2.48,1.72.9s.97.95,1.33,1.57c.36.62.6,1.27.71,1.93.11.67.09,1.31-.06,1.94ZM42.91,152.28c.65-.38,1.06-.89,1.23-1.52.17-.63.07-1.26-.3-1.9-.18-.31-.4-.57-.65-.76-.26-.21-.54-.35-.84-.43-.3-.08-.61-.09-.94-.04-.33.04-.66.16-.99.36-.32.19-.59.41-.79.68-.21.27-.35.55-.43.85-.08.3-.1.61-.05.93.05.33.17.64.35.95.38.65.88,1.06,1.51,1.21.63.16,1.27.04,1.92-.33Z"/>
  <path class="cls-1" d="M41.94,140.39c.14.33.05.57-.28.71l-6.06,2.77.81,1.77c.07.15.08.29.03.42s-.15.22-.31.29l-1.68.74c-.15.07-.29.08-.42.03-.13-.05-.22-.15-.29-.3l-.74-1.74-1.84.83c-.32.17-.55.08-.7-.26l-.87-1.98c-.07-.17-.08-.3-.03-.41.05-.11.16-.2.32-.29l1.89-.79-.75-1.75c-.07-.15-.08-.29-.03-.42.05-.13.15-.22.31-.29l1.5-.66c.15-.07.29-.08.41-.02.12.05.22.15.3.3l.81,1.77,6.19-2.6c.33-.14.57-.05.71.28l.71,1.62Z"/>
  <path class="cls-1" d="M35.47,134.16c.46-.25.77-.63.91-1.15.15-.52.11-1.09-.09-1.71-.16-.47-.34-.87-.56-1.2s-.47-.63-.76-.89c-.31-.29-.36-.56-.17-.79l.65-.86c.08-.1.18-.17.31-.2s.27,0,.44.1c.57.38,1.05.83,1.43,1.37.38.54.7,1.21.94,2,.23.74.33,1.46.3,2.16-.03.7-.19,1.34-.48,1.93-.29.59-.7,1.11-1.23,1.55-.53.44-1.18.79-1.95,1.03-.77.24-1.5.33-2.19.28-.7-.05-1.33-.23-1.91-.53-.58-.3-1.08-.71-1.51-1.23s-.75-1.12-.96-1.81c-.23-.73-.32-1.43-.29-2.09s.2-1.26.47-1.8c.28-.54.66-1.01,1.14-1.4.48-.4,1.04-.71,1.69-.93.42-.14.82-.15,1.2,0,.38.14.66.45.82.94l1.79,5.25ZM31.86,130.69c-.45.22-.76.58-.93,1.08-.17.51-.15,1.04.05,1.61.22.61.55,1.04.99,1.29.44.25.91.33,1.4.24l-1.51-4.22Z"/>
  <path class="cls-1" d="M33.15,116.62c.08-.09.19-.14.32-.16.13-.02.27.02.42.13.53.41.99.91,1.38,1.5.39.59.66,1.31.8,2.16.14.8.14,1.56,0,2.25-.13.7-.39,1.32-.76,1.87-.37.54-.84,1-1.43,1.36-.58.36-1.26.61-2.03.74-.76.13-1.48.12-2.16-.03s-1.29-.41-1.83-.77c-.54-.36-.99-.83-1.36-1.4-.37-.57-.61-1.21-.73-1.92-.11-.65-.13-1.25-.06-1.79s.2-1.04.4-1.48.44-.84.74-1.19c.29-.34.61-.63.95-.88.12-.08.22-.12.3-.12.08,0,.16.04.23.12l1.07,1.64c.17.19.15.38-.06.58-.26.25-.46.58-.6,1-.14.41-.17.81-.11,1.19.06.35.18.68.36.96s.4.52.66.7c.26.18.56.31.89.38.33.07.67.08,1.03.01.44-.08.81-.22,1.11-.44.3-.22.54-.47.72-.75.18-.29.29-.6.34-.94.05-.34.05-.67,0-1-.08-.48-.22-.87-.42-1.17-.2-.29-.45-.6-.76-.93-.14-.15-.21-.29-.23-.43-.02-.14.02-.26.11-.38l.72-.82Z"/>
  <path class="cls-1" d="M34.93,112.6c.02.36-.15.55-.51.57l-6.64.51.15,1.94c0,.17-.03.3-.12.4-.09.1-.22.16-.39.17l-1.83.11c-.17.01-.3-.03-.4-.12-.1-.09-.16-.22-.17-.39l-.1-1.89-2.01.14c-.36.05-.55-.12-.57-.49l-.13-2.16c-.01-.18.03-.31.11-.39.08-.08.22-.14.4-.16l2.05-.09-.1-1.91c0-.17.03-.3.12-.4.09-.1.22-.16.39-.17l1.64-.1c.17-.01.3.03.39.12.1.09.15.22.18.39l.15,1.94,6.71-.3c.36-.02.55.15.57.51l.11,1.76Z"/>
  <path class="cls-1" d="M24.02,104.93c0,.52-.2.95-.56,1.29-.36.35-.8.52-1.31.51s-.95-.19-1.29-.56c-.35-.36-.52-.8-.51-1.31,0-.52.2-.95.56-1.29.36-.35.8-.52,1.31-.51.52.01.95.2,1.29.56.35.36.52.8.51,1.31ZM34.73,106c0,.36-.19.54-.55.53l-8.91.05c-.36,0-.54-.18-.53-.53l.04-2.2c0-.36.19-.53.55-.51l8.9.35c.36,0,.54.19.53.55l-.03,1.76Z"/>
  <path class="cls-1" d="M33.72,100.6c-.51.41-1.1.71-1.76.91s-1.4.24-2.2.15c-.8-.09-1.5-.31-2.12-.66-.61-.34-1.12-.77-1.52-1.29-.4-.52-.69-1.11-.87-1.76-.18-.66-.22-1.34-.14-2.06.08-.72.29-1.37.61-1.97.32-.6.74-1.1,1.26-1.51s1.11-.71,1.78-.91c.68-.19,1.41-.24,2.21-.15.8.09,1.5.31,2.12.66.6.34,1.1.76,1.49,1.28s.67,1.1.84,1.76c.17.65.21,1.34.12,2.05-.08.71-.28,1.37-.59,1.97-.31.6-.72,1.1-1.21,1.52ZM30.33,98.88c.75.09,1.38-.07,1.9-.48.51-.4.81-.97.9-1.7.04-.36.02-.69-.06-1-.08-.32-.22-.61-.42-.85-.2-.24-.44-.44-.73-.6-.29-.16-.62-.26-1.01-.31-.37-.04-.72-.02-1.04.07-.32.09-.61.23-.85.42-.25.19-.45.43-.6.72-.15.29-.25.61-.29.97-.09.75.07,1.38.48,1.88.41.5.99.8,1.74.88Z"/>
  <path class="cls-1" d="M36.28,90.27c-.09.35-.31.48-.66.39l-8.71-2c-.35-.07-.49-.28-.39-.64l.54-2.13c.07-.27.23-.4.47-.4l.87.22c-.22-.19-.4-.42-.53-.68-.13-.26-.23-.53-.28-.82-.06-.28-.08-.56-.07-.83.01-.27.05-.51.1-.73.11-.43.28-.8.52-1.12.24-.32.52-.57.84-.77.32-.2.68-.34,1.08-.42s.81-.11,1.24-.09c.5.03,1.03.09,1.58.18.55.09,1.11.21,1.67.35.56.14,1.12.3,1.68.47s1.11.34,1.63.53c.17.07.29.15.35.25.07.1.08.23.04.41l-.51,2.01c-.09.36-.31.48-.65.35-.98-.35-1.91-.66-2.79-.93-.88-.27-1.72-.45-2.51-.56-.46-.05-.83.03-1.13.24-.3.22-.5.55-.62,1-.12.49-.08.9.13,1.23s.5.55.85.65l5.29,1.46c.35.09.48.31.39.66l-.44,1.71Z"/>
  <path class="cls-1" d="M43.92,62.04c.19-.09.35-.1.48-.04.12.06.22.17.31.32.5.9.74,1.83.72,2.79-.02.96-.29,1.94-.82,2.94-.45.86-1.01,1.57-1.68,2.12-.67.56-1.41.95-2.21,1.18s-1.65.29-2.55.19c-.89-.1-1.79-.39-2.7-.87-.9-.47-1.66-1.05-2.27-1.73-.61-.68-1.06-1.42-1.36-2.22s-.42-1.62-.37-2.48c.05-.85.29-1.69.72-2.51.29-.55.62-1.04.98-1.46.36-.42.75-.77,1.15-1.05.41-.28.82-.51,1.26-.67s.87-.27,1.32-.32c.15-.02.27,0,.39.07.11.07.19.18.23.33l.38,2.07c.03.15.01.29-.05.43-.06.14-.19.22-.36.25-.44.08-.86.25-1.26.51-.4.25-.76.67-1.07,1.26-.21.4-.32.83-.34,1.27-.01.44.06.87.23,1.29s.43.82.78,1.2c.35.38.79.71,1.31.98.51.27,1.02.43,1.53.5.51.06.98.04,1.43-.08.44-.12.84-.32,1.2-.61.36-.29.65-.64.87-1.07.29-.55.45-1.08.47-1.58.02-.5-.07-1.01-.28-1.51-.14-.35-.04-.61.3-.8l1.28-.69Z"/>
  <path class="cls-1" d="M45.79,58.55c.48.22.97.23,1.47.03.5-.2.94-.57,1.31-1.1.28-.41.48-.8.62-1.17.14-.37.23-.75.25-1.15.05-.42.23-.63.53-.62h1.08c.13,0,.24.05.34.12.1.08.16.21.18.41.04.68-.03,1.34-.23,1.97s-.54,1.28-1.02,1.96c-.45.63-.97,1.15-1.54,1.54-.58.39-1.19.65-1.83.78-.65.13-1.31.11-1.98-.04-.68-.16-1.34-.47-2-.94-.65-.47-1.17-.99-1.55-1.58-.38-.59-.62-1.2-.73-1.84-.11-.64-.09-1.29.07-1.94s.45-1.27.86-1.86c.45-.62.94-1.12,1.49-1.49s1.12-.6,1.72-.71c.6-.1,1.2-.08,1.8.06.6.14,1.19.41,1.76.78.37.25.61.57.73.96s.04.8-.25,1.22l-3.11,4.59ZM46.38,53.58c-.44-.23-.92-.26-1.42-.09-.51.17-.92.51-1.25,1.01-.36.54-.5,1.06-.44,1.57s.28.92.65,1.26l2.46-3.75Z"/>
  <path class="cls-1" d="M54.02,53.77c-.25.26-.5.27-.76.03l-6.68-5.93c-.28-.23-.29-.48-.04-.75l1.5-1.61c.19-.2.39-.24.61-.12l.66.61c-.1-.28-.15-.56-.14-.85.01-.29.06-.58.14-.85.08-.27.2-.53.34-.76.14-.23.29-.43.44-.6.3-.32.63-.57.99-.74.36-.17.73-.26,1.1-.27.38-.02.76.03,1.15.15.39.12.77.29,1.13.51.43.27.86.57,1.3.92.44.35.87.71,1.29,1.11.42.39.84.8,1.25,1.22.41.42.81.83,1.18,1.25.12.14.18.27.19.39s-.04.24-.17.38l-1.41,1.51c-.25.27-.5.27-.74,0-.69-.77-1.36-1.49-2-2.15-.65-.66-1.29-1.23-1.94-1.7-.37-.27-.74-.38-1.11-.33-.36.05-.71.24-1.02.58-.34.37-.5.75-.48,1.14.03.39.17.72.44.98l3.94,3.82c.26.25.27.5.03.76l-1.2,1.29Z"/>
  <path class="cls-1" d="M62.69,45.07c-.27.23-.53.21-.76-.06l-4.42-4.99-1.45,1.29c-.13.11-.26.16-.39.15-.14-.01-.26-.08-.37-.21l-1.19-1.39c-.11-.13-.16-.26-.15-.39.01-.14.08-.26.21-.37l1.45-1.22-1.33-1.52c-.25-.26-.24-.51.04-.75l1.64-1.41c.14-.12.26-.17.38-.15.12.02.24.09.37.22l1.31,1.58,1.46-1.23c.13-.11.26-.16.39-.15.14.01.26.08.37.21l1.07,1.24c.11.13.16.26.14.39-.01.13-.08.26-.2.37l-1.45,1.29,4.29,5.17c.23.27.21.53-.06.76l-1.34,1.15Z"/>
  <path class="cls-1" d="M66.79,37.05c.37.37.83.55,1.37.54.54-.01,1.08-.21,1.61-.58.4-.29.73-.58.99-.88.26-.3.47-.63.63-.99.19-.38.43-.51.71-.4l1.02.37c.12.05.21.13.28.23.07.11.08.26.03.45-.19.65-.49,1.24-.9,1.77-.4.52-.95,1.02-1.63,1.49-.64.44-1.3.75-1.98.92s-1.34.21-1.99.1c-.65-.1-1.27-.34-1.85-.72-.58-.38-1.1-.9-1.55-1.57-.45-.66-.76-1.34-.91-2.02-.15-.68-.17-1.34-.06-1.98.12-.64.36-1.24.73-1.8s.86-1.04,1.45-1.45c.63-.43,1.27-.73,1.91-.88.64-.16,1.26-.18,1.86-.07.6.11,1.15.33,1.67.68.52.34.98.79,1.39,1.34.26.36.38.74.36,1.15-.02.41-.24.76-.66,1.06l-4.5,3.25ZM69.06,32.58c-.34-.37-.77-.56-1.3-.57-.53-.01-1.04.16-1.52.52-.52.39-.84.83-.95,1.32-.11.5-.05.97.18,1.41l3.6-2.68Z"/>
  <path class="cls-1" d="M76.16,35.44c-.32.17-.56.09-.73-.23l-4.37-7.81c-.19-.31-.12-.55.21-.72l1.94-1.02c.16-.08.29-.11.38-.08.1.03.19.12.27.28l.25.48c.07-.59.33-1.12.8-1.59s1.03-.85,1.69-1.14c.33-.15.57-.07.73.23l.87,1.64c.08.16.1.3.05.43-.05.13-.15.22-.3.27-.37.12-.73.29-1.07.51-.34.23-.63.49-.86.78-.23.29-.39.6-.46.94-.08.33-.04.66.12.98l2.26,4.51c.17.32.09.56-.23.73l-1.56.82Z"/>
  <path class="cls-1" d="M94.4,27.9c-.22.3-.47.52-.75.65s-.55.18-.81.15c-.26-.03-.49-.12-.68-.29s-.31-.4-.34-.68l-.45-3.95-3.19-1.08c-.41-.14-.72-.34-.93-.58-.21-.24-.33-.5-.35-.78-.02-.27.05-.53.22-.78.17-.25.41-.44.73-.59l3.21-1.47.58-3.75c.05-.35.16-.62.33-.84s.37-.35.6-.41c.23-.07.48-.05.74.04.26.09.51.28.75.55l2.38,2.64,3.44-.92c.31-.08.6-.07.85.03.25.1.45.26.58.47.14.21.2.46.2.75s-.1.57-.3.86l-1.92,2.76,2.16,3.07c.16.23.23.48.23.74,0,.26-.09.49-.25.69-.16.2-.39.34-.69.45s-.66.1-1.07,0l-3.09-.74-2.2,3.01ZM93.23,25.73c.02.32.1.48.23.48.14,0,.29-.12.46-.38l1.75-2.92,2.86.96c.46.11.73.08.8-.06.07-.15.02-.36-.16-.64l-2.14-2.57,1.75-2.03c.23-.31.29-.52.19-.65-.11-.13-.33-.14-.68-.04l-2.62.8-1.41-1.8c-.26-.35-.52-.5-.75-.44s-.38.31-.41.75l-.23,2.51-2.88,1.14c-.29.14-.43.25-.44.35s.16.21.5.34l2.87.7.31,3.49Z"/>
</svg>